<?xml version="1.0" encoding="UTF-8" standalone="no"?>
<svg
   xmlns:dc="http://purl.org/dc/elements/1.1/"
   xmlns:cc="http://creativecommons.org/ns#"
   xmlns:rdf="http://www.w3.org/1999/02/22-rdf-syntax-ns#"
   xmlns:svg="http://www.w3.org/2000/svg"
   xmlns="http://www.w3.org/2000/svg"
   width="1920"
   height="300"
   viewBox="0 0 1920 300"
   version="1.1"
   id="svg8">
  <defs
     id="defs2">
    <filter
       style="color-interpolation-filters:sRGB"
       id="filter1955"
       width="1.2"
       height="1.26">
      <feFlood
         flood-opacity="0.333333"
         flood-color="rgb(234,253,12)"
         result="flood"
         id="feFlood1945" />
      <feComposite
         in="flood"
         in2="SourceGraphic"
         operator="in"
         result="composite1"
         id="feComposite1947" />
      <feGaussianBlur
         in="composite1"
         stdDeviation="15"
         result="blur"
         id="feGaussianBlur1949" />
      <feOffset
         dx="0"
         dy="5"
         result="offset"
         id="feOffset1951" />
      <feComposite
         in="SourceGraphic"
         in2="offset"
         operator="over"
         result="composite2"
         id="feComposite1953" />
    </filter>
    <clipPath
       clipPathUnits="userSpaceOnUse"
       id="clipPath20">
      <path
         d="M 0,800 H 800 V 0 H 0 Z"
         id="path18" />
    </clipPath>
  </defs>
  <metadata
     id="metadata5">
    <rdf:RDF>
      <cc:Work
         rdf:about="">
        <dc:format>image/svg+xml</dc:format>
        <dc:type
           rdf:resource="http://purl.org/dc/dcmitype/StillImage" />
        <dc:title></dc:title>
      </cc:Work>
    </rdf:RDF>
  </metadata>
  <g
     style="fill:#917c6f;fill-opacity:1"
     transform="matrix(0.37694501,0,0,-0.37694501,1654.8218,245.26864)"
     id="g1027">
    <path
       id="path1025"
       style="fill:#917c6f;fill-opacity:1;fill-rule:nonzero;stroke:none"
       d="m 0,0 c 0,0 14.618,20.511 54.755,20.511 40.137,0 49.057,-20.179 49.057,-20.179 L 93.409,34.566 12.256,33.872 Z" />
  </g>
  <g
     style="fill:#917c6f;fill-opacity:1"
     transform="matrix(0.37694501,0,0,-0.37694501,1659.6987,232.86334)"
     id="g1031">
    <path
       id="path1029"
       style="fill:#917c6f;fill-opacity:1;fill-rule:nonzero;stroke:none"
       d="m 0,0 -10.361,-28.639 c 6.348,6.026 22.177,17.209 52.178,17.209 27.791,0 40.826,-9.466 46.362,-15.625 L 79.751,0.684 Z m -16.24,-39.183 14.876,41.111 82.553,0.705 10.616,-34.929 -1.816,-0.68 c -0.09,0.196 -9.238,19.608 -48.172,19.608 -39.101,0 -53.818,-19.904 -53.963,-20.107 z" />
  </g>
  <g
     style="fill:#917c6f;fill-opacity:1"
     transform="matrix(0.37694501,0,0,-0.37694501,1692.7165,240.8064)"
     id="g1035">
    <path
       id="path1033"
       style="fill:#917c6f;fill-opacity:1;fill-rule:nonzero;stroke:none"
       d="m 0,0 -6.381,22.345 -84.735,-0.644 -6.632,-23.629 c 5.881,5.726 21.622,17.437 51.972,17.437 C -18.159,15.509 -5.324,5.957 0,0" />
  </g>
  <g
     style="fill:#917c6f;fill-opacity:1"
     transform="matrix(0.37694501,0,0,-0.37694501,1658.5691,232.88652)"
     id="g1039">
    <path
       id="path1037"
       style="fill:#917c6f;fill-opacity:1;fill-rule:nonzero;stroke:none"
       d="m 0,0 -5.833,-20.787 c 6.766,5.849 22.56,15.98 50.646,15.98 25.075,0 38.122,-7.885 44.357,-13.755 L 83.687,0.637 Z m -8.521,-25.231 7.47,26.609 0.521,0.007 85.261,0.647 7.358,-25.76 -2.017,2.254 c -5.096,5.704 -17.757,15.282 -45.259,15.282 -30.474,0 -46.159,-12.056 -51.488,-17.243 z" />
  </g>
  <path
     id="path1041"
     style="fill:#917c6f;fill-opacity:1;fill-rule:nonzero;stroke:none;stroke-width:0.37694502"
     d="m 1674.8357,234.90043 h -0.5236 v -2.14859 h 0.5236 z" />
  <g
     style="fill:#917c6f;fill-opacity:1"
     transform="matrix(0.37694501,0,0,-0.37694501,1674.3607,237.41981)"
     id="g1045">
    <path
       id="path1043"
       style="fill:#917c6f;fill-opacity:1;fill-rule:nonzero;stroke:none"
       d="M 0,0 -0.129,6.673 1.26,6.694 1.387,0.021 Z" />
  </g>
  <g
     style="fill:#917c6f;fill-opacity:1"
     transform="matrix(0.37694501,0,0,-0.37694501,1657.9065,239.7459)"
     id="g1049">
    <path
       id="path1047"
       style="fill:#917c6f;fill-opacity:1;fill-rule:nonzero;stroke:none"
       d="M 0,0 -2.85,5.368 -1.624,6.019 1.224,0.651 Z" />
  </g>
  <g
     style="fill:#917c6f;fill-opacity:1"
     transform="matrix(0.37694501,0,0,-0.37694501,1672.3284,235.12686)"
     id="g1053">
    <path
       id="path1051"
       style="fill:#917c6f;fill-opacity:1;fill-rule:nonzero;stroke:none"
       d="M 0,0 -0.431,7.56 0.955,7.64 1.388,0.076 Z" />
  </g>
  <g
     style="fill:#917c6f;fill-opacity:1"
     transform="matrix(0.37694501,0,0,-0.37694501,1659.2446,238.90991)"
     id="g1057">
    <path
       id="path1055"
       style="fill:#917c6f;fill-opacity:1;fill-rule:nonzero;stroke:none"
       d="M 0,0 -3.964,11.889 -2.647,12.33 1.316,0.437 Z" />
  </g>
  <g
     style="fill:#917c6f;fill-opacity:1"
     transform="matrix(0.37694501,0,0,-0.37694501,1660.8718,237.72533)"
     id="g1061">
    <path
       id="path1059"
       style="fill:#917c6f;fill-opacity:1;fill-rule:nonzero;stroke:none"
       d="m 0,0 -3.221,12.695 1.344,0.34 3.222,-12.698 z" />
  </g>
  <g
     style="fill:#917c6f;fill-opacity:1"
     transform="matrix(0.37694501,0,0,-0.37694501,1662.4512,237.11573)"
     id="g1065">
    <path
       id="path1063"
       style="fill:#917c6f;fill-opacity:1;fill-rule:nonzero;stroke:none"
       d="M 0,0 -1.848,11.787 -0.476,12.004 1.371,0.217 Z" />
  </g>
  <g
     style="fill:#917c6f;fill-opacity:1"
     transform="matrix(0.37694501,0,0,-0.37694501,1664.0621,236.48997)"
     id="g1069">
    <path
       id="path1067"
       style="fill:#917c6f;fill-opacity:1;fill-rule:nonzero;stroke:none"
       d="M 0,0 -0.924,10.185 0.458,10.315 1.382,0.134 Z" />
  </g>
  <g
     style="fill:#917c6f;fill-opacity:1"
     transform="matrix(0.37694501,0,0,-0.37694501,1665.6273,236.13843)"
     id="g1073">
    <path
       id="path1071"
       style="fill:#917c6f;fill-opacity:1;fill-rule:nonzero;stroke:none"
       d="M 0,0 -0.374,9.447 1.013,9.502 1.387,0.059 Z" />
  </g>
  <g
     style="fill:#917c6f;fill-opacity:1"
     transform="matrix(0.37694501,0,0,-0.37694501,1667.3568,235.58074)"
     id="g1077">
    <path
       id="path1075"
       style="fill:#917c6f;fill-opacity:1;fill-rule:nonzero;stroke:none"
       d="M 0,0 -0.126,7.816 1.26,7.838 1.387,0.025 Z" />
  </g>
  <g
     style="fill:#917c6f;fill-opacity:1"
     transform="matrix(0.37694501,0,0,-0.37694501,1668.9662,235.35287)"
     id="g1081">
    <path
       id="path1079"
       style="fill:#917c6f;fill-opacity:1;fill-rule:nonzero;stroke:none"
       d="M 0,0 -0.311,7.363 1.076,7.418 1.387,0.054 Z" />
  </g>
  <g
     style="fill:#917c6f;fill-opacity:1"
     transform="matrix(0.37694501,0,0,-0.37694501,1670.5778,235.21925)"
     id="g1085">
    <path
       id="path1083"
       style="fill:#917c6f;fill-opacity:1;fill-rule:nonzero;stroke:none"
       d="M 0,0 -0.375,7.161 1.013,7.237 1.387,0.079 Z" />
  </g>
  <g
     style="fill:#917c6f;fill-opacity:1"
     transform="matrix(0.37694501,0,0,-0.37694501,1656.8302,243.02318)"
     id="g1089">
    <path
       id="path1087"
       style="fill:#917c6f;fill-opacity:1;fill-rule:nonzero;stroke:none"
       d="m 0,0 -1.859,5.251 1.305,0.463 1.86,-5.248 z" />
  </g>
  <g
     style="fill:#917c6f;fill-opacity:1"
     transform="matrix(0.37694501,0,0,-0.37694501,1657.8806,242.15224)"
     id="g1093">
    <path
       id="path1091"
       style="fill:#917c6f;fill-opacity:1;fill-rule:nonzero;stroke:none"
       d="M 0,0 -1.765,4.76 -0.466,5.248 1.3,0.481 Z" />
  </g>
  <g
     style="fill:#917c6f;fill-opacity:1"
     transform="matrix(0.37694501,0,0,-0.37694501,1659.0005,241.45686)"
     id="g1097">
    <path
       id="path1095"
       style="fill:#917c6f;fill-opacity:1;fill-rule:nonzero;stroke:none"
       d="M 0,0 -1.675,4.883 -0.363,5.339 1.312,0.452 Z" />
  </g>
  <g
     style="fill:#917c6f;fill-opacity:1"
     transform="matrix(0.37694501,0,0,-0.37694501,1660.1513,240.88812)"
     id="g1101">
    <path
       id="path1099"
       style="fill:#917c6f;fill-opacity:1;fill-rule:nonzero;stroke:none"
       d="m 0,0 -1.49,5.374 1.338,0.365 1.49,-5.371 z" />
  </g>
  <g
     style="fill:#917c6f;fill-opacity:1"
     transform="matrix(0.37694501,0,0,-0.37694501,1661.1983,240.0919)"
     id="g1105">
    <path
       id="path1103"
       style="fill:#917c6f;fill-opacity:1;fill-rule:nonzero;stroke:none"
       d="M 0,0 -1.175,5.544 0.179,5.837 1.354,0.293 Z" />
  </g>
  <g
     style="fill:#917c6f;fill-opacity:1"
     transform="matrix(0.37694501,0,0,-0.37694501,1662.3872,239.62185)"
     id="g1109">
    <path
       id="path1107"
       style="fill:#917c6f;fill-opacity:1;fill-rule:nonzero;stroke:none"
       d="M 0,0 -0.933,5.126 0.434,5.375 1.366,0.25 Z" />
  </g>
  <g
     style="fill:#917c6f;fill-opacity:1"
     transform="matrix(0.37694501,0,0,-0.37694501,1663.6102,239.33141)"
     id="g1113">
    <path
       id="path1111"
       style="fill:#917c6f;fill-opacity:1;fill-rule:nonzero;stroke:none"
       d="M 0,0 -0.765,6.366 0.611,6.529 1.376,0.17 Z" />
  </g>
  <g
     style="fill:#917c6f;fill-opacity:1"
     transform="matrix(0.37694501,0,0,-0.37694501,1664.9047,238.77225)"
     id="g1117">
    <path
       id="path1115"
       style="fill:#917c6f;fill-opacity:1;fill-rule:nonzero;stroke:none"
       d="m 0,0 -0.559,5.736 1.382,0.13 0.559,-5.74 z" />
  </g>
  <g
     style="fill:#917c6f;fill-opacity:1"
     transform="matrix(0.37694501,0,0,-0.37694501,1666.4119,238.49946)"
     id="g1121">
    <path
       id="path1119"
       style="fill:#917c6f;fill-opacity:1;fill-rule:nonzero;stroke:none"
       d="M 0,0 -0.651,6.104 0.731,6.257 1.382,0.147 Z" />
  </g>
  <g
     style="fill:#917c6f;fill-opacity:1"
     transform="matrix(0.37694501,0,0,-0.37694501,1667.7406,238.20239)"
     id="g1125">
    <path
       id="path1123"
       style="fill:#917c6f;fill-opacity:1;fill-rule:nonzero;stroke:none"
       d="M 0,0 -0.185,6.098 1.203,6.142 1.387,0.043 Z" />
  </g>
  <g
     style="fill:#917c6f;fill-opacity:1"
     transform="matrix(0.37694501,0,0,-0.37694501,1668.9662,237.92153)"
     id="g1129">
    <path
       id="path1127"
       style="fill:#917c6f;fill-opacity:1;fill-rule:nonzero;stroke:none"
       d="M 0,0 -0.069,6.518 1.318,6.524 1.387,0.015 Z" />
  </g>
  <path
     id="path1131"
     style="fill:#917c6f;fill-opacity:1;fill-rule:nonzero;stroke:none;stroke-width:0.37694502"
     d="m 1670.7865,237.78255 h -0.5236 v -2.30125 h 0.5236 z" />
  <g
     style="fill:#917c6f;fill-opacity:1"
     transform="matrix(0.37694501,0,0,-0.37694501,1671.6275,237.64621)"
     id="g1135">
    <path
       id="path1133"
       style="fill:#917c6f;fill-opacity:1;fill-rule:nonzero;stroke:none"
       d="M 0,0 -0.092,6.586 1.295,6.604 1.387,0.021 Z" />
  </g>
  <g
     style="fill:#917c6f;fill-opacity:1"
     transform="matrix(0.37694501,0,0,-0.37694501,1672.9589,237.46765)"
     id="g1139">
    <path
       id="path1137"
       style="fill:#917c6f;fill-opacity:1;fill-rule:nonzero;stroke:none"
       d="M 0,0 -0.183,5.74 1.206,5.78 1.387,0.044 Z" />
  </g>
  <g
     style="fill:#917c6f;fill-opacity:1"
     transform="matrix(0.37694501,0,0,-0.37694501,1691.1149,239.16096)"
     id="g1143">
    <path
       id="path1141"
       style="fill:#917c6f;fill-opacity:1;fill-rule:nonzero;stroke:none"
       d="M 0,0 -1.23,0.641 1.621,6.105 2.853,5.466 Z" />
  </g>
  <g
     style="fill:#917c6f;fill-opacity:1"
     transform="matrix(0.37694501,0,0,-0.37694501,1676.6923,235.06244)"
     id="g1147">
    <path
       id="path1145"
       style="fill:#917c6f;fill-opacity:1;fill-rule:nonzero;stroke:none"
       d="M 0,0 -1.387,0.072 -0.956,7.649 0.433,7.573 Z" />
  </g>
  <g
     style="fill:#917c6f;fill-opacity:1"
     transform="matrix(0.37694501,0,0,-0.37694501,1689.7764,238.37284)"
     id="g1151">
    <path
       id="path1149"
       style="fill:#917c6f;fill-opacity:1;fill-rule:nonzero;stroke:none"
       d="M 0,0 -1.316,0.434 2.646,12.457 3.964,12.026 Z" />
  </g>
  <g
     style="fill:#917c6f;fill-opacity:1"
     transform="matrix(0.37694501,0,0,-0.37694501,1688.1486,237.2468)"
     id="g1155">
    <path
       id="path1153"
       style="fill:#917c6f;fill-opacity:1;fill-rule:nonzero;stroke:none"
       d="M 0,0 -1.346,0.337 1.877,13.141 3.221,12.808 Z" />
  </g>
  <g
     style="fill:#917c6f;fill-opacity:1"
     transform="matrix(0.37694501,0,0,-0.37694501,1686.6582,236.5378)"
     id="g1159">
    <path
       id="path1157"
       style="fill:#917c6f;fill-opacity:1;fill-rule:nonzero;stroke:none"
       d="M 0,0 -1.374,0.192 0.239,11.64 1.615,11.444 Z" />
  </g>
  <g
     style="fill:#917c6f;fill-opacity:1"
     transform="matrix(0.37694501,0,0,-0.37694501,1684.885,235.98011)"
     id="g1163">
    <path
       id="path1161"
       style="fill:#917c6f;fill-opacity:1;fill-rule:nonzero;stroke:none"
       d="M 0,0 -1.376,0.152 -0.26,9.965 1.118,9.813 Z" />
  </g>
  <g
     style="fill:#917c6f;fill-opacity:1"
     transform="matrix(0.37694501,0,0,-0.37694501,1683.393,235.83287)"
     id="g1167">
    <path
       id="path1165"
       style="fill:#917c6f;fill-opacity:1;fill-rule:nonzero;stroke:none"
       d="M 0,0 -1.386,0.051 -1.013,9.513 0.374,9.462 Z" />
  </g>
  <g
     style="fill:#917c6f;fill-opacity:1"
     transform="matrix(0.37694501,0,0,-0.37694501,1681.6633,235.33666)"
     id="g1171">
    <path
       id="path1169"
       style="fill:#917c6f;fill-opacity:1;fill-rule:nonzero;stroke:none"
       d="M 0,0 -1.387,0.021 -1.256,7.838 0.131,7.816 Z" />
  </g>
  <g
     style="fill:#917c6f;fill-opacity:1"
     transform="matrix(0.37694501,0,0,-0.37694501,1680.0546,235.16881)"
     id="g1175">
    <path
       id="path1173"
       style="fill:#917c6f;fill-opacity:1;fill-rule:nonzero;stroke:none"
       d="M 0,0 -1.387,0.054 -1.076,7.429 0.311,7.371 Z" />
  </g>
  <g
     style="fill:#917c6f;fill-opacity:1"
     transform="matrix(0.37694501,0,0,-0.37694501,1678.4423,235.09259)"
     id="g1179">
    <path
       id="path1177"
       style="fill:#917c6f;fill-opacity:1;fill-rule:nonzero;stroke:none"
       d="M 0,0 -1.385,0.08 -1.012,7.252 0.375,7.176 Z" />
  </g>
  <g
     style="fill:#917c6f;fill-opacity:1"
     transform="matrix(0.37694501,0,0,-0.37694501,1692.1916,242.40035)"
     id="g1183">
    <path
       id="path1181"
       style="fill:#917c6f;fill-opacity:1;fill-rule:nonzero;stroke:none"
       d="m 0,0 -1.312,0.456 1.86,5.32 1.31,-0.456 z" />
  </g>
  <g
     style="fill:#917c6f;fill-opacity:1"
     transform="matrix(0.37694501,0,0,-0.37694501,1691.1399,241.5673)"
     id="g1187">
    <path
       id="path1185"
       style="fill:#917c6f;fill-opacity:1;fill-rule:nonzero;stroke:none"
       d="M 0,0 -1.301,0.478 0.464,5.299 1.766,4.825 Z" />
  </g>
  <g
     style="fill:#917c6f;fill-opacity:1"
     transform="matrix(0.37694501,0,0,-0.37694501,1690.0201,240.91134)"
     id="g1191">
    <path
       id="path1189"
       style="fill:#917c6f;fill-opacity:1;fill-rule:nonzero;stroke:none"
       d="M 0,0 -1.311,0.444 0.364,5.393 1.674,4.947 Z" />
  </g>
  <g
     style="fill:#917c6f;fill-opacity:1"
     transform="matrix(0.37694501,0,0,-0.37694501,1688.8694,240.38384)"
     id="g1195">
    <path
       id="path1193"
       style="fill:#917c6f;fill-opacity:1;fill-rule:nonzero;stroke:none"
       d="M 0,0 -1.338,0.365 0.15,5.791 1.49,5.426 Z" />
  </g>
  <g
     style="fill:#917c6f;fill-opacity:1"
     transform="matrix(0.37694501,0,0,-0.37694501,1687.821,239.63546)"
     id="g1199">
    <path
       id="path1197"
       style="fill:#917c6f;fill-opacity:1;fill-rule:nonzero;stroke:none"
       d="M 0,0 -1.349,0.326 -0.01,5.914 1.337,5.589 Z" />
  </g>
  <g
     style="fill:#917c6f;fill-opacity:1"
     transform="matrix(0.37694501,0,0,-0.37694501,1686.6335,239.20329)"
     id="g1203">
    <path
       id="path1201"
       style="fill:#917c6f;fill-opacity:1;fill-rule:nonzero;stroke:none"
       d="m 0,0 -1.367,0.246 1.146,6.218 1.365,-0.25 z" />
  </g>
  <g
     style="fill:#917c6f;fill-opacity:1"
     transform="matrix(0.37694501,0,0,-0.37694501,1685.4091,238.96182)"
     id="g1207">
    <path
       id="path1205"
       style="fill:#917c6f;fill-opacity:1;fill-rule:nonzero;stroke:none"
       d="M 0,0 -1.37,0.202 -0.437,6.496 0.936,6.29 Z" />
  </g>
  <g
     style="fill:#917c6f;fill-opacity:1"
     transform="matrix(0.37694501,0,0,-0.37694501,1684.1163,238.44646)"
     id="g1211">
    <path
       id="path1209"
       style="fill:#917c6f;fill-opacity:1;fill-rule:nonzero;stroke:none"
       d="M 0,0 -1.382,0.152 -0.721,6.373 0.661,6.221 Z" />
  </g>
  <g
     style="fill:#917c6f;fill-opacity:1"
     transform="matrix(0.37694501,0,0,-0.37694501,1682.6089,238.22301)"
     id="g1215">
    <path
       id="path1213"
       style="fill:#917c6f;fill-opacity:1;fill-rule:nonzero;stroke:none"
       d="M 0,0 -1.384,0.152 -0.73,6.272 0.649,6.124 Z" />
  </g>
  <g
     style="fill:#917c6f;fill-opacity:1"
     transform="matrix(0.37694501,0,0,-0.37694501,1681.2797,237.98007)"
     id="g1219">
    <path
       id="path1217"
       style="fill:#917c6f;fill-opacity:1;fill-rule:nonzero;stroke:none"
       d="M 0,0 -1.385,0.064 -1.06,6.593 0.327,6.528 Z" />
  </g>
  <path
     id="path1221"
     style="fill:#917c6f;fill-opacity:1;fill-rule:nonzero;stroke:none;stroke-width:0.37694502"
     d="m 1680.0545,237.73618 h -0.5229 v -2.57679 h 0.5229 z" />
  <path
     id="path1223"
     style="fill:#917c6f;fill-opacity:1;fill-rule:nonzero;stroke:none;stroke-width:0.37694502"
     d="m 1678.7574,237.64308 h -0.5228 v -2.30012 h 0.5228 z" />
  <g
     style="fill:#917c6f;fill-opacity:1"
     transform="matrix(0.37694501,0,0,-0.37694501,1677.3924,237.55747)"
     id="g1227">
    <path
       id="path1225"
       style="fill:#917c6f;fill-opacity:1;fill-rule:nonzero;stroke:none"
       d="M 0,0 -1.387,0.021 -1.293,6.611 0.095,6.59 Z" />
  </g>
  <g
     style="fill:#917c6f;fill-opacity:1"
     transform="matrix(0.37694501,0,0,-0.37694501,1675.5387,237.41981)"
     id="g1231">
    <path
       id="path1229"
       style="fill:#917c6f;fill-opacity:1;fill-rule:nonzero;stroke:none"
       d="M 0,0 -0.048,6.456 1.34,6.471 1.387,0.007 Z" />
  </g>
  <g
     style="fill:#917c6f;fill-opacity:1"
     transform="matrix(0.37694501,0,0,-0.37694501,1674.3114,88.913243)"
     id="g1235">
    <path
       id="path1233"
       style="fill:#917c6f;fill-opacity:1;fill-rule:nonzero;stroke:none"
       d="m 0,0 -11.918,-0.025 0.585,0.564 -2.227,-67.694 c -0.255,-11.281 -1.023,-22.584 -1.626,-33.843 l -0.942,-16.917 -1.432,-16.883 c -1.074,-11.252 -1.682,-22.544 -3.136,-33.764 l -4.347,-33.655 -1.087,-8.42 -1.514,-8.33 -3.102,-16.645 -3.103,-16.645 c -1.009,-5.508 -2,-11.172 -3.514,-16.63 -2.741,-10.996 -5.335,-22.024 -8.951,-32.77 -1.748,-5.385 -3.216,-10.872 -5.191,-16.181 l -5.879,-15.944 c -1.852,-5.356 -4.173,-10.525 -6.37,-15.752 -2.269,-5.186 -4.309,-10.481 -6.762,-15.585 -4.875,-10.228 -9.66,-20.501 -15.134,-30.428 -5.16,-10.088 -11.034,-19.796 -16.794,-29.547 l -9.03,-14.403 -9.489,-14.113 c -6.485,-9.291 -13.18,-18.446 -20.186,-27.369 -7.057,-8.912 -14.265,-17.6 -22.132,-25.987 l -1.956,4.583 64.03,0.48 -1.95,-0.983 0.002,0.007 c 6.33,8.63 12.14,17.9 17.738,27.181 5.479,9.382 10.771,18.88 15.675,28.584 4.983,9.676 9.529,19.557 13.996,29.475 4.265,10.011 8.489,20.033 12.205,30.265 1.995,5.064 3.818,10.19 5.489,15.373 1.707,5.161 3.521,10.296 5.142,15.491 2.948,10.474 6.351,20.833 8.729,31.46 l 3.876,15.863 3.156,15.994 c 2.339,10.612 3.593,21.502 5.271,32.28 1.603,10.728 2.284,21.659 3.472,32.481 1.241,10.832 1.626,21.755 2.444,32.631 0.784,10.884 1.417,21.774 1.845,32.682 0.466,10.906 1.086,21.807 1.426,32.712 0.755,21.821 1.416,43.641 1.836,65.469 C -0.412,-43.291 -0.123,-21.647 0,0 m 1.125,0.561 c 0.038,-21.835 -0.1,-43.686 -0.385,-65.524 -0.258,-21.835 -0.755,-43.674 -1.353,-65.513 -0.262,-10.92 -0.803,-21.828 -1.19,-32.747 -0.347,-10.916 -0.902,-21.832 -1.605,-32.734 -0.742,-10.9 -1.048,-21.835 -2.213,-32.71 -1.112,-10.895 -1.711,-21.789 -3.248,-32.679 -1.608,-10.804 -2.767,-21.648 -5.049,-32.401 l -3.067,-16.16 -3.778,-15.99 c -2.318,-10.71 -5.664,-21.151 -8.556,-31.721 -1.589,-5.236 -3.376,-10.412 -5.06,-15.628 -1.642,-5.23 -3.439,-10.398 -5.411,-15.512 -3.667,-10.326 -7.843,-20.461 -12.071,-30.575 -4.424,-10.022 -8.932,-20.011 -13.882,-29.802 -4.874,-9.821 -10.142,-19.442 -15.605,-28.957 -5.616,-9.455 -11.334,-18.761 -17.853,-27.785 l -0.708,-0.966 -1.244,-0.026 -64.025,-0.904 -6.405,-0.09 4.454,4.673 c 7.642,8.025 14.94,16.659 21.962,25.395 7.008,8.777 13.715,17.801 20.218,26.97 l 9.52,13.922 9.066,14.218 c 5.791,9.636 11.696,19.217 16.896,29.192 5.509,9.809 10.336,19.969 15.257,30.085 2.476,5.053 4.539,10.283 6.83,15.426 2.221,5.161 4.568,10.275 6.445,15.578 l 5.961,15.784 c 2.004,5.256 3.5,10.688 5.279,16.02 3.674,10.647 6.332,21.578 9.144,32.475 1.544,5.418 2.539,10.87 3.612,16.454 l 3.229,16.63 3.232,16.617 1.577,8.315 1.147,8.366 4.587,33.478 c 1.536,11.161 2.23,22.435 3.388,33.651 l 1.564,16.848 1.074,16.887 c 0.691,11.27 1.541,22.494 1.889,33.786 l 2.748,67.676 V 0.579 l 0.586,0.567 13.039,-0.028 z" />
  </g>
  <path
     id="path1237"
     style="fill:#917c6f;fill-opacity:1;fill-rule:nonzero;stroke:none;stroke-width:0.37694502"
     d="m 1653.8526,247.66416 h -17.8442 v -1.04564 h 17.8442 z" />
  <g
     style="fill:#917c6f;fill-opacity:1"
     transform="matrix(0.37694501,0,0,-0.37694501,1612.0381,279.82353)"
     id="g1241">
    <path
       id="path1239"
       style="fill:#917c6f;fill-opacity:1;fill-rule:nonzero;stroke:none"
       d="m 0,0 c -0.516,0 -1.013,0.29 -1.251,0.789 -0.333,0.688 -0.042,1.519 0.647,1.848 L 88.353,45.646 62.175,85.247 c -0.206,0.308 -0.277,0.688 -0.2,1.053 0.079,0.365 0.299,0.679 0.614,0.879 l 62.427,39.536 c 0.638,0.412 1.503,0.221 1.913,-0.427 0.41,-0.643 0.217,-1.505 -0.43,-1.917 L 65.27,85.594 91.539,45.848 c 0.221,-0.328 0.29,-0.744 0.183,-1.128 -0.107,-0.384 -0.374,-0.705 -0.735,-0.879 L 0.603,0.145 C 0.409,0.044 0.203,0 0,0" />
  </g>
  <g
     style="fill:#917c6f;fill-opacity:1"
     transform="matrix(0.37694501,0,0,-0.37694501,1636.1727,279.56144)"
     id="g1245">
    <path
       id="path1243"
       style="fill:#917c6f;fill-opacity:1;fill-rule:nonzero;stroke:none"
       d="m 0,0 c -0.458,0 -0.906,0.23 -1.168,0.644 l -27.514,43.001 c -0.208,0.318 -0.273,0.715 -0.179,1.082 0.09,0.368 0.333,0.683 0.662,0.875 l 72.678,41.001 -24.821,36.78 c -0.432,0.633 -0.264,1.494 0.375,1.92 0.622,0.434 1.495,0.26 1.922,-0.372 L 47.619,86.899 c 0.215,-0.318 0.289,-0.712 0.201,-1.092 -0.089,-0.372 -0.331,-0.699 -0.668,-0.886 L -25.555,43.905 1.165,2.137 C 1.581,1.489 1.391,0.636 0.747,0.217 0.514,0.072 0.255,0 0,0" />
  </g>
  <g
     style="fill:#917c6f;fill-opacity:1"
     transform="matrix(0.37694501,0,0,-0.37694501,1625.5371,279.5044)"
     id="g1249">
    <path
       id="path1247"
       style="fill:#917c6f;fill-opacity:1;fill-rule:nonzero;stroke:none"
       d="M 0,0 -2.295,1.552 C -1.765,2.34 51.154,80.997 67,125.85 l 2.617,-0.915 C 53.653,79.734 0.537,0.792 0,0" />
  </g>
  <g
     style="fill:#917c6f;fill-opacity:1"
     transform="matrix(0.37694501,0,0,-0.37694501,1666.8271,208.8121)"
     id="g1253">
    <path
       id="path1251"
       style="fill:#917c6f;fill-opacity:1;fill-rule:nonzero;stroke:none"
       d="m 0,0 h -33.898 c -0.537,0 -0.971,0.43 -0.971,0.969 0,0.539 0.434,0.969 0.971,0.969 H 0 c 0.537,0 0.971,-0.43 0.971,-0.969 C 0.971,0.43 0.537,0 0,0" />
  </g>
  <g
     style="fill:#917c6f;fill-opacity:1"
     transform="matrix(0.37694501,0,0,-0.37694501,1668.7882,199.1389)"
     id="g1257">
    <path
       id="path1255"
       style="fill:#917c6f;fill-opacity:1;fill-rule:nonzero;stroke:none"
       d="m 0,0 h -30.778 c -0.539,0 -0.969,0.434 -0.969,0.969 0,0.539 0.43,0.972 0.969,0.972 L 0,1.941 C 0.536,1.941 0.97,1.508 0.97,0.969 0.97,0.434 0.536,0 0,0" />
  </g>
  <g
     style="fill:#917c6f;fill-opacity:1"
     transform="matrix(0.37694501,0,0,-0.37694501,1670.1933,189.59563)"
     id="g1261">
    <path
       id="path1259"
       style="fill:#917c6f;fill-opacity:1;fill-rule:nonzero;stroke:none"
       d="m 0,0 h -27.657 c -0.535,0 -0.969,0.435 -0.969,0.97 0,0.539 0.434,0.972 0.969,0.972 H 0 C 0.537,1.942 0.971,1.509 0.971,0.97 0.971,0.435 0.537,0 0,0" />
  </g>
  <g
     style="fill:#917c6f;fill-opacity:1"
     transform="matrix(0.37694501,0,0,-0.37694501,1651.0751,217.17779)"
     id="g1265">
    <path
       id="path1263"
       style="fill:#917c6f;fill-opacity:1;fill-rule:nonzero;stroke:none"
       d="M 0,0 C -0.349,0 -0.688,0.185 -0.862,0.521 -1.108,0.994 -0.928,1.58 -0.45,1.83 L 39.843,22.905 16.121,47.457 c -0.193,0.195 -0.291,0.471 -0.267,0.745 0.017,0.278 0.155,0.535 0.372,0.702 l 33.189,25.6 -22.454,18.136 c -0.416,0.332 -0.483,0.947 -0.147,1.363 0.338,0.412 0.95,0.481 1.366,0.141 L 51.589,75.246 c 0.231,-0.184 0.367,-0.467 0.359,-0.767 0,-0.293 -0.139,-0.575 -0.374,-0.759 L 18.271,48.025 42.143,23.321 c 0.211,-0.22 0.307,-0.531 0.258,-0.835 -0.047,-0.297 -0.238,-0.56 -0.507,-0.705 L 0.449,0.108 C 0.306,0.032 0.15,0 0,0" />
  </g>
  <g
     style="fill:#917c6f;fill-opacity:1"
     transform="matrix(0.37694501,0,0,-0.37694501,1664.6054,217.50502)"
     id="g1269">
    <path
       id="path1267"
       style="fill:#917c6f;fill-opacity:1;fill-rule:nonzero;stroke:none"
       d="m 0,0 c -0.219,0 -0.443,0.068 -0.624,0.224 l -27.223,22.714 c -0.235,0.2 -0.363,0.493 -0.347,0.799 0.016,0.304 0.175,0.586 0.43,0.756 L 9.281,49.189 -13.035,74.193 c -0.19,0.214 -0.277,0.493 -0.241,0.771 0.036,0.278 0.194,0.531 0.429,0.687 l 29.48,19.423 c 0.452,0.293 1.052,0.17 1.345,-0.279 0.295,-0.452 0.168,-1.049 -0.277,-1.345 L -10.838,74.649 11.473,49.646 c 0.192,-0.207 0.278,-0.489 0.242,-0.767 -0.037,-0.278 -0.192,-0.525 -0.424,-0.688 L -25.604,23.597 0.622,1.718 C 1.035,1.371 1.089,0.76 0.745,0.347 0.552,0.119 0.277,0 0,0" />
  </g>
  <g
     style="fill:#917c6f;fill-opacity:1"
     transform="matrix(0.37694501,0,0,-0.37694501,1658.5691,217.4248)"
     id="g1273">
    <path
       id="path1271"
       style="fill:#917c6f;fill-opacity:1;fill-rule:nonzero;stroke:none"
       d="m 0,0 -2.655,0.814 c 0.177,0.582 17.699,58.399 21.798,95.812 L 21.9,96.322 C 17.771,58.655 0.177,0.59 0,0" />
  </g>
  <path
     id="path1275"
     style="fill:#917c6f;fill-opacity:1;fill-rule:nonzero;stroke:none;stroke-width:0.37694502"
     d="m 1672.6121,164.76453 h -8.1047 v -0.52358 h 8.1047 z" />
  <path
     id="path1277"
     style="fill:#917c6f;fill-opacity:1;fill-rule:nonzero;stroke:none;stroke-width:0.37694502"
     d="m 1672.8412,158.88155 h -7.517 v -0.52358 h 7.517 z" />
  <path
     id="path1279"
     style="fill:#917c6f;fill-opacity:1;fill-rule:nonzero;stroke:none;stroke-width:0.37694502"
     d="m 1673.3637,152.99857 h -7.4191 v -0.52207 h 7.4191 z" />
  <path
     id="path1281"
     style="fill:#917c6f;fill-opacity:1;fill-rule:nonzero;stroke:none;stroke-width:0.37694502"
     d="m 1673.5273,147.11672 h -7.1575 v -0.52358 h 7.1575 z" />
  <path
     id="path1283"
     style="fill:#917c6f;fill-opacity:1;fill-rule:nonzero;stroke:none;stroke-width:0.37694502"
     d="m 1674.6057,91.29644 h -4.9674 v -0.522069 h 4.9674 z" />
  <path
     id="path1285"
     style="fill:#917c6f;fill-opacity:1;fill-rule:nonzero;stroke:none;stroke-width:0.37694502"
     d="m 1674.5405,93.975388 h -4.9346 v -0.523576 h 4.9346 z" />
  <path
     id="path1287"
     style="fill:#917c6f;fill-opacity:1;fill-rule:nonzero;stroke:none;stroke-width:0.37694502"
     d="m 1674.5081,97.047113 h -5.0334 v -0.523576 h 5.0334 z" />
  <path
     id="path1289"
     style="fill:#917c6f;fill-opacity:1;fill-rule:nonzero;stroke:none;stroke-width:0.37694502"
     d="m 1674.4425,100.57833 h -5.0333 v -0.52357 h 5.0333 z" />
  <path
     id="path1291"
     style="fill:#917c6f;fill-opacity:1;fill-rule:nonzero;stroke:none;stroke-width:0.37694502"
     d="m 1674.5725,103.97574 h -5.3597 v -0.52207 h 5.3597 z" />
  <path
     id="path1293"
     style="fill:#917c6f;fill-opacity:1;fill-rule:nonzero;stroke:none;stroke-width:0.37694502"
     d="m 1674.5081,107.96344 h -5.4254 v -0.52358 h 5.4254 z" />
  <path
     id="path1295"
     style="fill:#917c6f;fill-opacity:1;fill-rule:nonzero;stroke:none;stroke-width:0.37694502"
     d="m 1674.6057,112.34279 h -5.8178 v -0.52207 h 5.8178 z" />
  <path
     id="path1297"
     style="fill:#917c6f;fill-opacity:1;fill-rule:nonzero;stroke:none;stroke-width:0.37694502"
     d="m 1674.4097,116.52688 h -5.7522 v -0.52358 h 5.7522 z" />
  <path
     id="path1299"
     style="fill:#917c6f;fill-opacity:1;fill-rule:nonzero;stroke:none;stroke-width:0.37694502"
     d="m 1674.3777,120.79842 h -5.883 v -0.52358 h 5.883 z" />
  <path
     id="path1301"
     style="fill:#917c6f;fill-opacity:1;fill-rule:nonzero;stroke:none;stroke-width:0.37694502"
     d="m 1674.2465,125.05073 h -5.883 v -0.52244 h 5.883 z" />
  <path
     id="path1303"
     style="fill:#917c6f;fill-opacity:1;fill-rule:nonzero;stroke:none;stroke-width:0.37694502"
     d="m 1673.9528,130.04186 h -6.1442 v -0.52357 h 6.1442 z" />
  <path
     id="path1305"
     style="fill:#917c6f;fill-opacity:1;fill-rule:nonzero;stroke:none;stroke-width:0.37694502"
     d="m 1673.7233,135.52151 h -6.0458 v -0.52357 h 6.0458 z" />
  <path
     id="path1307"
     style="fill:#917c6f;fill-opacity:1;fill-rule:nonzero;stroke:none;stroke-width:0.37694502"
     d="m 1673.6912,141.16702 h -6.5366 v -0.52207 h 6.5366 z" />
  <g
     style="fill:#917c6f;fill-opacity:1"
     transform="matrix(0.37694501,0,0,-0.37694501,1663.6491,171.31123)"
     id="g1311">
    <path
       id="path1309"
       style="fill:#917c6f;fill-opacity:1;fill-rule:nonzero;stroke:none"
       d="M 0,0 -0.823,1.114 22.165,18.044 3.447,33.644 24.165,49.381 6.859,64.956 25.263,80.592 9.891,95.612 26.286,109.7 l -14.721,13.332 15.444,11.52 -14.203,11.317 14.24,11.115 -13.41,11.444 13.57,10.579 -12.584,8.779 12.138,9.823 -11.578,8.077 11.745,6.843 -10.747,5.487 0.63,1.236 13.009,-6.648 -12.065,-7.031 11.313,-7.877 -12.138,-9.824 12.612,-8.8 L 15.83,168.385 29.239,156.944 15.043,145.862 29.279,134.52 13.743,122.924 28.38,109.671 11.945,95.547 27.322,80.516 8.966,64.927 26.339,49.291 5.673,33.586 24.413,17.979 Z" />
  </g>
  <g
     style="fill:#917c6f;fill-opacity:1"
     transform="matrix(0.37694501,0,0,-0.37694501,1669.5027,111.94865)"
     id="g1315">
    <path
       id="path1313"
       style="fill:#917c6f;fill-opacity:1;fill-rule:nonzero;stroke:none"
       d="M 0,0 14.305,10.836 1.219,21.759 13.269,30.776 2.102,40.125 13.865,48.466 2.063,55.31 13.184,61.053 12.544,62.29 0.302,55.96 C 0.242,55.592 0.143,55.233 0.033,54.883 L 11.303,48.347 -0.168,40.212 11.033,30.837 -1.018,21.817 12.079,10.894 -2.228,0.054 11.565,-11.484 -3.002,-22.754 10.472,-33.97 -4.55,-46.915 10.024,-62.008 -6.54,-76.751 8.961,-92.687 l -18.765,-15.462 17.551,-15.987 -21.598,-15.013 19.993,-17.752 0.922,1.042 -18.68,16.579 20.868,14.497 0.714,0.492 -17.65,16.091 18.108,14.92 0.583,0.481 -15.541,15.969 16.558,14.742 -14.558,15.075 15.152,13.065 -13.405,11.154 14.562,11.271 z" />
  </g>
  <path
     id="path1317"
     style="fill:#917c6f;fill-opacity:1;fill-rule:nonzero;stroke:none;stroke-width:0.37694502"
     d="m 1650.5517,255.07 h -19.6083 v -1.04452 h 19.6083 z" />
  <path
     id="path1319"
     style="fill:#917c6f;fill-opacity:1;fill-rule:nonzero;stroke:none;stroke-width:0.37694502"
     d="m 1657.1321,239.86291 h -16.8631 v -1.04678 h 16.8631 z" />
  <g
     style="fill:#917c6f;fill-opacity:1"
     transform="matrix(0.37694501,0,0,-0.37694501,1674.396,88.491932)"
     id="g1323">
    <path
       id="path1321"
       style="fill:#917c6f;fill-opacity:1;fill-rule:nonzero;stroke:none"
       d="m 0,0 13.039,0.029 0.586,-0.568 v 0.004 l 2.748,-67.676 c 0.348,-11.292 1.197,-22.516 1.889,-33.786 l 1.074,-16.887 1.564,-16.847 c 1.158,-11.216 1.852,-22.49 3.387,-33.652 l 4.588,-33.478 1.146,-8.366 1.579,-8.315 3.231,-16.616 3.23,-16.631 c 1.072,-5.584 2.067,-11.035 3.611,-16.453 2.812,-10.898 5.471,-21.828 9.144,-32.476 1.78,-5.332 3.275,-10.763 5.279,-16.019 l 5.961,-15.784 c 1.877,-5.303 4.224,-10.417 6.445,-15.579 2.291,-5.143 4.354,-10.373 6.83,-15.425 4.921,-10.117 9.748,-20.277 15.257,-30.085 5.201,-9.976 11.105,-19.557 16.896,-29.193 l 9.066,-14.218 9.519,-13.921 c 6.504,-9.169 13.211,-18.194 20.219,-26.971 7.023,-8.735 14.319,-17.369 21.962,-25.395 l 4.454,-4.672 -6.405,0.089 -64.025,0.905 -1.245,0.025 -0.707,0.966 c -6.519,9.024 -12.237,18.33 -17.852,27.785 -5.464,9.516 -10.732,19.137 -15.606,28.957 -4.95,9.791 -9.458,19.78 -13.882,29.803 -4.228,10.113 -8.404,20.248 -12.071,30.574 -1.972,5.114 -3.768,10.282 -5.411,15.513 -1.684,5.216 -3.471,10.391 -5.061,15.628 -2.891,10.569 -6.237,21.01 -8.555,31.72 l -3.779,15.991 -3.066,16.16 c -2.282,10.753 -3.441,21.596 -5.049,32.4 -1.537,10.891 -2.136,21.785 -3.248,32.679 -1.165,10.876 -1.471,21.81 -2.213,32.711 -0.703,10.901 -1.258,21.817 -1.605,32.733 -0.387,10.919 -0.928,21.828 -1.19,32.747 -0.598,21.839 -1.095,43.678 -1.353,65.513 -0.285,21.839 -0.423,43.689 -0.385,65.524 z m 1.121,-1.118 c 0.123,-21.647 0.412,-43.29 0.856,-64.938 0.419,-21.827 1.08,-43.648 1.836,-65.469 0.339,-10.905 0.959,-21.806 1.425,-32.711 0.428,-10.909 1.061,-21.799 1.846,-32.682 0.816,-10.876 1.202,-21.799 2.443,-32.632 1.188,-10.822 1.869,-21.752 3.472,-32.48 1.679,-10.779 2.932,-21.668 5.272,-32.281 l 3.155,-15.994 3.876,-15.863 c 2.378,-10.627 5.782,-20.985 8.729,-31.46 1.621,-5.194 3.437,-10.33 5.142,-15.491 1.671,-5.183 3.494,-10.309 5.489,-15.372 3.716,-10.233 7.941,-20.255 12.205,-30.266 4.467,-9.918 9.013,-19.799 13.995,-29.474 4.906,-9.705 10.197,-19.203 15.676,-28.584 5.598,-9.282 11.408,-18.551 17.738,-27.182 l 0.001,-0.007 -1.949,0.983 64.03,-0.48 -1.957,-4.583 c -7.866,8.388 -15.075,17.075 -22.131,25.987 -7.008,8.923 -13.701,18.078 -20.186,27.369 l -9.489,14.114 -9.03,14.402 c -5.759,9.751 -11.633,19.459 -16.794,29.547 -5.473,9.928 -10.258,20.2 -15.134,30.429 -2.452,5.103 -4.492,10.398 -6.762,15.585 -2.197,5.226 -4.518,10.395 -6.37,15.752 l -5.879,15.943 c -1.975,5.31 -3.443,10.796 -5.19,16.182 -3.618,10.746 -6.21,21.773 -8.952,32.769 -1.513,5.458 -2.505,11.122 -3.514,16.63 l -3.103,16.646 -3.101,16.645 -1.514,8.329 -1.088,8.42 -4.348,33.655 c -1.453,11.22 -2.06,22.512 -3.134,33.764 l -1.433,16.884 -0.942,16.916 c -0.602,11.26 -1.371,22.562 -1.626,33.844 l -2.228,67.693 0.586,-0.564 z" />
  </g>
  <path
     id="path1325"
     style="fill:#917c6f;fill-opacity:1;fill-rule:nonzero;stroke:none;stroke-width:0.37694502"
     d="m 1713.1216,247.66416 h -17.8442 v -1.04564 h 17.8442 z" />
  <g
     style="fill:#917c6f;fill-opacity:1"
     transform="matrix(0.37694501,0,0,-0.37694501,1737.0919,279.82353)"
     id="g1329">
    <path
       id="path1327"
       style="fill:#917c6f;fill-opacity:1;fill-rule:nonzero;stroke:none"
       d="m 0,0 c -0.202,0 -0.409,0.044 -0.603,0.145 l -90.384,43.696 c -0.361,0.174 -0.628,0.495 -0.735,0.879 -0.106,0.384 -0.038,0.8 0.183,1.128 l 26.269,39.746 -61.228,38.777 c -0.648,0.412 -0.842,1.274 -0.433,1.917 0.416,0.644 1.273,0.828 1.915,0.427 l 62.427,-39.536 c 0.315,-0.2 0.535,-0.514 0.614,-0.879 0.075,-0.365 0.006,-0.745 -0.2,-1.053 L -88.353,45.646 0.604,2.637 C 1.293,2.308 1.584,1.477 1.251,0.789 1.013,0.29 0.516,0 0,0" />
  </g>
  <g
     style="fill:#917c6f;fill-opacity:1"
     transform="matrix(0.37694501,0,0,-0.37694501,1712.957,279.56144)"
     id="g1333">
    <path
       id="path1331"
       style="fill:#917c6f;fill-opacity:1;fill-rule:nonzero;stroke:none"
       d="m 0,0 c -0.255,0 -0.513,0.072 -0.747,0.217 -0.644,0.419 -0.833,1.272 -0.417,1.92 l 26.72,41.768 -72.707,41.016 c -0.337,0.187 -0.579,0.514 -0.668,0.886 -0.088,0.38 -0.014,0.774 0.201,1.092 l 25.664,38.032 c 0.432,0.632 1.3,0.799 1.922,0.372 0.638,-0.426 0.804,-1.287 0.375,-1.92 L -44.479,86.603 28.2,45.602 c 0.329,-0.192 0.571,-0.507 0.661,-0.875 0.095,-0.367 0.03,-0.764 -0.178,-1.082 L 1.169,0.644 C 0.906,0.23 0.458,0 0,0" />
  </g>
  <g
     style="fill:#917c6f;fill-opacity:1"
     transform="matrix(0.37694501,0,0,-0.37694501,1723.5929,279.5044)"
     id="g1337">
    <path
       id="path1335"
       style="fill:#917c6f;fill-opacity:1;fill-rule:nonzero;stroke:none"
       d="M 0,0 C -0.537,0.792 -53.653,79.734 -69.617,124.935 L -67,125.85 C -51.154,80.993 1.766,2.34 2.295,1.552 Z" />
  </g>
  <g
     style="fill:#917c6f;fill-opacity:1"
     transform="matrix(0.37694501,0,0,-0.37694501,1695.0805,208.8121)"
     id="g1341">
    <path
       id="path1339"
       style="fill:#917c6f;fill-opacity:1;fill-rule:nonzero;stroke:none"
       d="m 0,0 h -33.897 c -0.54,0 -0.972,0.43 -0.972,0.969 0,0.539 0.432,0.969 0.972,0.969 H 0 c 0.537,0 0.971,-0.43 0.971,-0.969 C 0.971,0.43 0.537,0 0,0" />
  </g>
  <g
     style="fill:#917c6f;fill-opacity:1"
     transform="matrix(0.37694501,0,0,-0.37694501,1691.9431,199.1389)"
     id="g1345">
    <path
       id="path1343"
       style="fill:#917c6f;fill-opacity:1;fill-rule:nonzero;stroke:none"
       d="m 0,0 h -30.777 c -0.535,0 -0.97,0.434 -0.97,0.969 0,0.539 0.435,0.972 0.97,0.972 L 0,1.941 C 0.539,1.941 0.97,1.508 0.97,0.969 0.97,0.434 0.539,0 0,0" />
  </g>
  <g
     style="fill:#917c6f;fill-opacity:1"
     transform="matrix(0.37694501,0,0,-0.37694501,1689.3619,189.59563)"
     id="g1349">
    <path
       id="path1347"
       style="fill:#917c6f;fill-opacity:1;fill-rule:nonzero;stroke:none"
       d="m 0,0 h -27.657 c -0.537,0 -0.972,0.435 -0.972,0.97 0,0.539 0.435,0.972 0.972,0.972 H 0 C 0.535,1.942 0.969,1.509 0.969,0.97 0.969,0.435 0.535,0 0,0" />
  </g>
  <g
     style="fill:#917c6f;fill-opacity:1"
     transform="matrix(0.37694501,0,0,-0.37694501,1698.0549,217.17779)"
     id="g1353">
    <path
       id="path1351"
       style="fill:#917c6f;fill-opacity:1;fill-rule:nonzero;stroke:none"
       d="m 0,0 c -0.15,0 -0.306,0.032 -0.45,0.108 l -41.444,21.673 c -0.269,0.145 -0.46,0.408 -0.507,0.705 -0.049,0.304 0.047,0.615 0.257,0.835 l 23.873,24.704 -33.303,25.695 c -0.236,0.184 -0.374,0.466 -0.376,0.759 -0.006,0.3 0.13,0.583 0.361,0.767 l 23.409,18.898 c 0.409,0.347 1.028,0.279 1.366,-0.141 0.336,-0.416 0.269,-1.031 -0.147,-1.363 l -22.454,-18.136 33.189,-25.6 c 0.217,-0.167 0.354,-0.424 0.372,-0.702 0.024,-0.274 -0.074,-0.55 -0.267,-0.745 L -39.843,22.905 0.448,1.83 C 0.928,1.58 1.108,0.994 0.862,0.521 0.688,0.185 0.349,0 0,0" />
  </g>
  <g
     style="fill:#917c6f;fill-opacity:1"
     transform="matrix(0.37694501,0,0,-0.37694501,1684.5246,217.50502)"
     id="g1357">
    <path
       id="path1355"
       style="fill:#917c6f;fill-opacity:1;fill-rule:nonzero;stroke:none"
       d="M 0,0 C -0.276,0 -0.552,0.119 -0.745,0.347 -1.089,0.76 -1.034,1.371 -0.622,1.718 L 25.604,23.597 -11.29,48.191 c -0.234,0.163 -0.388,0.41 -0.426,0.688 -0.035,0.278 0.051,0.56 0.24,0.767 L 10.838,74.649 -17.701,93.45 c -0.445,0.296 -0.571,0.893 -0.277,1.345 0.301,0.449 0.901,0.572 1.345,0.279 l 29.48,-19.423 c 0.235,-0.156 0.392,-0.409 0.429,-0.687 0.036,-0.278 -0.05,-0.557 -0.241,-0.771 L -9.281,49.189 27.764,24.493 c 0.255,-0.17 0.414,-0.452 0.429,-0.756 0.017,-0.306 -0.111,-0.599 -0.346,-0.799 L 0.624,0.224 C 0.442,0.068 0.219,0 0,0" />
  </g>
  <g
     style="fill:#917c6f;fill-opacity:1"
     transform="matrix(0.37694501,0,0,-0.37694501,1690.5609,217.4248)"
     id="g1361">
    <path
       id="path1359"
       style="fill:#917c6f;fill-opacity:1;fill-rule:nonzero;stroke:none"
       d="m 0,0 c -0.177,0.59 -17.771,58.655 -21.9,96.322 l 2.757,0.304 C -15.044,59.213 2.478,1.396 2.655,0.814 Z" />
  </g>
  <path
     id="path1363"
     style="fill:#917c6f;fill-opacity:1;fill-rule:nonzero;stroke:none;stroke-width:0.37694502"
     d="m 1684.623,164.76453 h -8.105 v -0.52358 h 8.105 z" />
  <path
     id="path1365"
     style="fill:#917c6f;fill-opacity:1;fill-rule:nonzero;stroke:none;stroke-width:0.37694502"
     d="m 1683.8062,158.88155 h -7.517 v -0.52358 h 7.517 z" />
  <path
     id="path1367"
     style="fill:#917c6f;fill-opacity:1;fill-rule:nonzero;stroke:none;stroke-width:0.37694502"
     d="m 1683.185,152.99857 h -7.419 v -0.52207 h 7.419 z" />
  <path
     id="path1369"
     style="fill:#917c6f;fill-opacity:1;fill-rule:nonzero;stroke:none;stroke-width:0.37694502"
     d="m 1682.7602,147.11672 h -7.1575 v -0.52358 h 7.1575 z" />
  <path
     id="path1371"
     style="fill:#917c6f;fill-opacity:1;fill-rule:nonzero;stroke:none;stroke-width:0.37694502"
     d="m 1679.4913,91.29644 h -4.9674 v -0.522069 h 4.9674 z" />
  <path
     id="path1373"
     style="fill:#917c6f;fill-opacity:1;fill-rule:nonzero;stroke:none;stroke-width:0.37694502"
     d="m 1679.5245,93.975388 h -4.935 v -0.523576 h 4.935 z" />
  <path
     id="path1375"
     style="fill:#917c6f;fill-opacity:1;fill-rule:nonzero;stroke:none;stroke-width:0.37694502"
     d="m 1679.6553,97.047113 h -5.0334 v -0.523576 h 5.0334 z" />
  <path
     id="path1377"
     style="fill:#917c6f;fill-opacity:1;fill-rule:nonzero;stroke:none;stroke-width:0.37694502"
     d="m 1679.7205,100.57833 h -5.033 v -0.52357 h 5.033 z" />
  <path
     id="path1379"
     style="fill:#917c6f;fill-opacity:1;fill-rule:nonzero;stroke:none;stroke-width:0.37694502"
     d="m 1679.9169,103.97574 h -5.3598 v -0.52207 h 5.3598 z" />
  <path
     id="path1381"
     style="fill:#917c6f;fill-opacity:1;fill-rule:nonzero;stroke:none;stroke-width:0.37694502"
     d="m 1680.0473,107.96344 h -5.4254 v -0.52358 h 5.4254 z" />
  <path
     id="path1383"
     style="fill:#917c6f;fill-opacity:1;fill-rule:nonzero;stroke:none;stroke-width:0.37694502"
     d="m 1680.3417,112.34279 h -5.8178 v -0.52207 h 5.8178 z" />
  <path
     id="path1385"
     style="fill:#917c6f;fill-opacity:1;fill-rule:nonzero;stroke:none;stroke-width:0.37694502"
     d="m 1680.4725,116.52688 h -5.7522 v -0.52358 h 5.7522 z" />
  <path
     id="path1387"
     style="fill:#917c6f;fill-opacity:1;fill-rule:nonzero;stroke:none;stroke-width:0.37694502"
     d="m 1680.6353,120.79842 h -5.883 v -0.52358 h 5.883 z" />
  <path
     id="path1389"
     style="fill:#917c6f;fill-opacity:1;fill-rule:nonzero;stroke:none;stroke-width:0.37694502"
     d="m 1680.7665,125.05073 h -5.883 v -0.52244 h 5.883 z" />
  <path
     id="path1391"
     style="fill:#917c6f;fill-opacity:1;fill-rule:nonzero;stroke:none;stroke-width:0.37694502"
     d="m 1681.3214,130.04186 h -6.1442 v -0.52357 h 6.1442 z" />
  <path
     id="path1393"
     style="fill:#917c6f;fill-opacity:1;fill-rule:nonzero;stroke:none;stroke-width:0.37694502"
     d="m 1681.4525,135.52151 h -6.0458 v -0.52357 h 6.0458 z" />
  <path
     id="path1395"
     style="fill:#917c6f;fill-opacity:1;fill-rule:nonzero;stroke:none;stroke-width:0.37694502"
     d="m 1681.9754,141.16702 h -6.5366 v -0.52207 h 6.5366 z" />
  <g
     style="fill:#917c6f;fill-opacity:1"
     transform="matrix(0.37694501,0,0,-0.37694501,1685.4809,171.31123)"
     id="g1399">
    <path
       id="path1397"
       style="fill:#917c6f;fill-opacity:1;fill-rule:nonzero;stroke:none"
       d="m 0,0 -24.413,17.979 18.74,15.607 -20.666,15.705 17.373,15.636 -18.356,15.589 15.378,15.031 -16.436,14.124 14.637,13.253 -15.536,11.596 14.236,11.342 -14.196,11.082 13.408,11.441 -13.71,10.687 12.612,8.8 -12.138,9.824 11.313,7.877 -12.065,7.031 13.009,6.648 0.629,-1.236 -10.746,-5.487 11.744,-6.843 -11.577,-8.077 12.138,-9.823 -12.584,-8.779 13.57,-10.579 -13.41,-11.444 14.24,-11.115 -14.202,-11.317 15.443,-11.52 L -26.286,109.7 -9.891,95.612 -25.263,80.592 -6.859,64.956 -24.165,49.381 -3.447,33.644 -22.165,18.044 0.823,1.114 Z" />
  </g>
  <g
     style="fill:#917c6f;fill-opacity:1"
     transform="matrix(0.37694501,0,0,-0.37694501,1676.707,158.74099)"
     id="g1403">
    <path
       id="path1401"
       style="fill:#917c6f;fill-opacity:1;fill-rule:nonzero;stroke:none"
       d="M 0,0 17.551,15.987 -1.214,31.449 14.287,47.385 -2.277,62.127 12.297,77.221 -2.725,90.166 l 13.474,11.216 -14.567,11.27 13.793,11.538 -14.307,10.84 13.098,10.923 -12.052,9.02 11.201,9.375 -11.471,8.134 11.077,6.42 c -0.04,0.391 -0.054,0.782 -0.037,1.172 l -12.281,6.352 -0.64,-1.238 L 5.684,179.445 -6.118,172.602 5.646,164.261 -5.521,154.912 6.528,145.895 -6.559,134.972 7.747,124.136 -6.028,112.612 8.533,101.342 -4.871,90.188 10.281,77.123 -4.277,62.048 12.281,47.306 -3.26,31.337 15.432,15.936 -2.219,-0.155 19.363,-15.144 0.684,-31.724 l 0.921,-1.042 19.993,17.752 z" />
  </g>
  <path
     id="path1405"
     style="fill:#917c6f;fill-opacity:1;fill-rule:nonzero;stroke:none;stroke-width:0.37694502"
     d="m 1718.1866,255.07 h -19.6083 v -1.04452 h 19.6083 z" />
  <path
     id="path1407"
     style="fill:#917c6f;fill-opacity:1;fill-rule:nonzero;stroke:none;stroke-width:0.37694502"
     d="m 1708.861,239.86291 h -16.863 v -1.04678 h 16.863 z" />
  <path
     id="path1409"
     style="fill:#917c6f;fill-opacity:1;fill-rule:nonzero;stroke:none;stroke-width:0.37694502"
     d="m 1690.1622,174.78373 h -31.8971 v -3.92098 h 31.8971 z" />
  <path
     id="path1411"
     style="fill:#917c6f;fill-opacity:1;fill-rule:nonzero;stroke:none;stroke-width:0.37694502"
     d="m 1659.9644,179.29387 h 28.4982 v 1.63444 h -28.4982 z" />
  <path
     id="path1413"
     style="fill:#917c6f;fill-opacity:1;fill-rule:nonzero;stroke:none;stroke-width:0.37694502"
     d="m 1688.7242,179.03341 h -29.0218 v 2.15537 h 29.0218 z m -0.5225,1.6333 h -27.9761 v -1.11124 h 27.9761 z" />
  <g
     style="fill:#917c6f;fill-opacity:1"
     transform="matrix(0.37694501,0,0,-0.37694501,1663.4942,175.72047)"
     id="g1417">
    <path
       id="path1415"
       style="fill:#917c6f;fill-opacity:1;fill-rule:nonzero;stroke:none"
       d="m 0,0 c -0.383,0 -0.694,0.308 -0.694,0.694 v 7.969 c 0,0.387 0.311,0.694 0.694,0.694 0.382,0 0.693,-0.307 0.693,-0.694 V 0.694 C 0.693,0.308 0.382,0 0,0" />
  </g>
  <g
     style="fill:#917c6f;fill-opacity:1"
     transform="matrix(0.37694501,0,0,-0.37694501,1667.1113,175.72047)"
     id="g1421">
    <path
       id="path1419"
       style="fill:#917c6f;fill-opacity:1;fill-rule:nonzero;stroke:none"
       d="m 0,0 c -0.381,0 -0.694,0.308 -0.694,0.694 v 7.969 c 0,0.387 0.313,0.694 0.694,0.694 0.382,0 0.693,-0.307 0.693,-0.694 V 0.694 C 0.693,0.308 0.382,0 0,0" />
  </g>
  <g
     style="fill:#917c6f;fill-opacity:1"
     transform="matrix(0.37694501,0,0,-0.37694501,1670.7271,175.72047)"
     id="g1425">
    <path
       id="path1423"
       style="fill:#917c6f;fill-opacity:1;fill-rule:nonzero;stroke:none"
       d="m 0,0 c -0.383,0 -0.692,0.308 -0.692,0.694 v 7.969 c 0,0.387 0.309,0.694 0.692,0.694 0.382,0 0.694,-0.307 0.694,-0.694 V 0.694 C 0.694,0.308 0.382,0 0,0" />
  </g>
  <g
     style="fill:#917c6f;fill-opacity:1"
     transform="matrix(0.37694501,0,0,-0.37694501,1674.3441,175.72047)"
     id="g1429">
    <path
       id="path1427"
       style="fill:#917c6f;fill-opacity:1;fill-rule:nonzero;stroke:none"
       d="m 0,0 c -0.382,0 -0.692,0.308 -0.692,0.694 v 7.969 c 0,0.387 0.31,0.694 0.692,0.694 0.382,0 0.694,-0.307 0.694,-0.694 V 0.694 C 0.694,0.308 0.382,0 0,0" />
  </g>
  <g
     style="fill:#917c6f;fill-opacity:1"
     transform="matrix(0.37694501,0,0,-0.37694501,1677.9619,175.72047)"
     id="g1433">
    <path
       id="path1431"
       style="fill:#917c6f;fill-opacity:1;fill-rule:nonzero;stroke:none"
       d="m 0,0 c -0.384,0 -0.692,0.308 -0.692,0.694 v 7.969 c 0,0.387 0.308,0.694 0.692,0.694 0.382,0 0.694,-0.307 0.694,-0.694 V 0.694 C 0.694,0.308 0.382,0 0,0" />
  </g>
  <g
     style="fill:#917c6f;fill-opacity:1"
     transform="matrix(0.37694501,0,0,-0.37694501,1681.5775,175.72047)"
     id="g1437">
    <path
       id="path1435"
       style="fill:#917c6f;fill-opacity:1;fill-rule:nonzero;stroke:none"
       d="m 0,0 c -0.384,0 -0.694,0.308 -0.694,0.694 v 7.969 c 0,0.387 0.31,0.694 0.694,0.694 0.382,0 0.692,-0.307 0.692,-0.694 V 0.694 C 0.692,0.308 0.382,0 0,0" />
  </g>
  <g
     style="fill:#917c6f;fill-opacity:1"
     transform="matrix(0.37694501,0,0,-0.37694501,1685.1953,175.72047)"
     id="g1441">
    <path
       id="path1439"
       style="fill:#917c6f;fill-opacity:1;fill-rule:nonzero;stroke:none"
       d="m 0,0 c -0.384,0 -0.694,0.308 -0.694,0.694 v 7.969 c 0,0.387 0.31,0.694 0.694,0.694 0.382,0 0.692,-0.307 0.692,-0.694 V 0.694 C 0.692,0.308 0.382,0 0,0" />
  </g>
  <path
     id="path1443"
     style="fill:#917c6f;fill-opacity:1;fill-rule:nonzero;stroke:none;stroke-width:0.37694502"
     d="m 1659.9644,174.91453 h 28.4982 v 3.92249 h -28.4982 z" />
  <path
     id="path1445"
     style="fill:#917c6f;fill-opacity:1;fill-rule:nonzero;stroke:none;stroke-width:0.37694502"
     d="m 1688.7242,174.65293 h -29.0218 v 4.44606 h 29.0218 z m -0.5225,3.92249 h -27.9761 v -3.39892 h 27.9761 z" />
  <g
     style="fill:#917c6f;fill-opacity:1"
     transform="matrix(0.37694501,0,0,-0.37694501,1688.0234,180.14332)"
     id="g1449">
    <path
       id="path1447"
       style="fill:#917c6f;fill-opacity:1;fill-rule:nonzero;stroke:none"
       d="m 0,0 -1.402,1.4 1.293,1.295 1.404,-1.407 z m -1.879,-1.888 -1.406,1.407 1.295,1.298 1.406,-1.41 z M -5.28,1.512 -3.989,2.811 -2.578,1.4 -3.875,0.105 Z m -0.472,-3.281 -1.405,1.4 1.289,1.299 1.405,-1.411 z m -3.4,3.4 1.289,1.288 1.407,-1.407 -1.293,-1.287 z m -0.479,-3.295 -1.408,1.407 1.301,1.292 1.405,-1.404 z m -3.875,0.113 -1.406,1.406 1.291,1.295 1.407,-1.407 z m -3.871,0.119 -1.422,1.418 1.291,1.291 1.42,-1.422 z m -3.893,0.123 -1.406,1.411 1.295,1.294 1.406,-1.41 z m -3.875,0.116 -1.405,1.41 1.293,1.288 1.403,-1.403 z m -3.872,0.112 -1.407,1.403 1.293,1.295 1.406,-1.407 z m -3.877,0.116 -1.405,1.403 1.293,1.291 1.407,-1.407 z m -3.872,0.108 -1.407,1.407 1.292,1.291 1.406,-1.403 z m -1.884,-1.884 -1.405,1.407 1.296,1.298 1.404,-1.41 z m -3.4,3.399 1.295,1.302 1.407,-1.41 -1.298,-1.295 z m -0.49,-3.302 -1.405,1.407 1.307,1.309 1.408,-1.406 z m -3.4,3.4 1.309,1.309 1.403,-1.407 -1.305,-1.305 z m -0.474,-3.284 -1.407,1.403 1.295,1.295 1.403,-1.407 z m -3.416,3.414 1.291,1.295 1.422,-1.425 -1.292,-1.287 z m -0.461,-3.305 -1.423,1.425 1.295,1.291 1.421,-1.422 z m -3.418,3.418 1.295,1.294 1.407,-1.407 -1.293,-1.294 z m -0.471,-3.285 -1.406,1.404 1.291,1.291 1.407,-1.403 z m -3.399,3.4 1.291,1.288 1.403,-1.403 -1.291,-1.288 z m -0.478,-3.284 -1.401,1.403 1.289,1.288 1.407,-1.403 z m -3.398,3.397 1.291,1.291 1.409,-1.404 -1.293,-1.298 z m -0.474,-3.292 -1.405,1.411 1.292,1.291 1.406,-1.404 z m -3.4,3.407 1.293,1.288 1.406,-1.403 -1.293,-1.295 z m -0.479,-3.295 -1.407,1.407 1.298,1.295 1.406,-1.403 z m -3.398,3.4 1.295,1.299 1.407,-1.404 -1.297,-1.302 z m -0.474,-3.28 -1.407,1.403 1.292,1.291 1.403,-1.407 z m -3.402,3.392 1.293,1.295 1.406,-1.407 -1.291,-1.288 z m -0.472,-3.288 -1.406,1.415 1.291,1.287 1.407,-1.403 z M -1.99,1.993 -2.947,2.944 H -5.021 L -5.868,2.098 -6.711,2.944 h -2.301 l -0.726,-0.727 -0.731,0.727 h -1.174 l 1.315,-1.313 -1.297,-1.298 -1.406,1.411 1.206,1.2 h -1.174 l -0.622,-0.618 -0.615,0.618 h -1.181 l 1.208,-1.2 -1.291,-1.295 -1.422,1.418 1.084,1.077 h -1.176 l -0.494,-0.491 -0.493,0.491 h -1.176 l 1.081,-1.077 -1.289,-1.295 -1.41,1.407 0.969,0.965 h -1.183 l -0.372,-0.372 -0.375,0.372 h -1.177 l 0.962,-0.965 -1.291,-1.288 -1.407,1.396 0.853,0.857 h -1.174 l -0.267,-0.264 -0.265,0.264 h -1.176 l 0.852,-0.857 -1.292,-1.291 -1.405,1.411 0.74,0.737 h -1.177 l -0.151,-0.152 -0.151,0.152 h -1.177 l 0.739,-0.737 -1.292,-1.292 -1.406,1.4 0.627,0.629 h -1.177 l -0.038,-0.036 -0.038,0.036 h -1.175 l 0.623,-0.629 -1.289,-1.295 -1.41,1.407 0.515,0.517 h -2.206 l 0.515,-0.517 -1.288,-1.287 -1.407,1.403 0.4,0.401 h -1.978 l 0.403,-0.401 -1.297,-1.295 -1.405,1.403 0.291,0.293 h -1.76 l 0.292,-0.293 -1.306,-1.305 -1.423,1.418 0.177,0.18 h -1.532 l 0.178,-0.18 -1.293,-1.288 -1.406,1.399 0.065,0.069 h -1.305 l 0.063,-0.069 -1.293,-1.287 -1.362,1.356 h -1.262 l -1.25,-1.248 -1.242,1.248 h -1.503 l -1.128,-1.128 -1.131,1.128 H -64.9 l -1.017,-1.016 -1.016,1.016 h -1.955 l -0.907,-0.907 -0.908,0.907 h -2.171 l -0.795,-0.788 -0.792,0.788 h -0.671 V 2.435 l 0.877,-0.876 -0.877,-0.875 v -2.011 l 0.989,-0.984 -0.466,-0.463 h 2.11 l -0.467,0.463 1.292,1.288 1.404,-1.404 -0.35,-0.347 h 1.881 l -0.353,0.347 1.291,1.291 1.405,-1.403 -0.24,-0.235 h 1.655 l -0.239,0.235 1.297,1.295 1.405,-1.4 -0.128,-0.13 h 1.435 l -0.13,0.13 1.293,1.288 1.403,-1.407 -0.014,-0.011 h 1.206 l -0.016,0.011 1.293,1.298 1.311,-1.309 h 1.371 l 1.194,1.19 1.193,-1.19 h 1.629 l 1.069,1.064 1.066,-1.064 h 1.857 l 0.953,0.951 0.957,-0.951 h 2.074 l 0.856,0.854 0.857,-0.854 h 2.276 l 0.747,0.745 0.745,-0.745 h 1.177 l -1.334,1.328 1.293,1.291 1.404,-1.404 -1.221,-1.215 h 1.177 l 0.631,0.629 0.629,-0.629 h 1.181 l -1.223,1.215 1.295,1.295 1.408,-1.407 -1.111,-1.103 h 1.176 l 0.522,0.517 0.519,-0.517 h 1.174 l -1.107,1.103 1.293,1.295 1.406,-1.403 -0.995,-0.995 h 1.176 l 0.406,0.405 0.408,-0.405 h 1.176 l -0.996,0.995 1.295,1.287 1.406,-1.403 -0.879,-0.879 h 1.174 l 0.291,0.29 0.295,-0.29 h 1.178 l -0.885,0.879 1.297,1.295 1.42,-1.418 -0.76,-0.756 h 1.18 l 0.168,0.163 0.168,-0.163 h 1.176 l -0.756,0.756 1.289,1.288 1.405,-1.407 -0.639,-0.637 h 1.172 l 0.056,0.051 0.053,-0.051 h 1.174 l -0.639,0.637 1.293,1.294 1.406,-1.399 -0.532,-0.532 h 2.239 l -0.532,0.532 1.295,1.291 1.409,-1.41 -0.416,-0.413 h 2.009 l -0.415,0.413 1.287,1.294 1.406,-1.411 -0.301,-0.296 h 1.782 L -1.291,-2.478 0,-1.179 1.409,-2.589 1.221,-2.774 h 0.638 v 0.912 L 0.592,-0.593 1.859,0.68 V 1.903 L 0.814,2.944 h -1.848 z" />
  </g>
  <path
     id="path1451"
     style="fill:#917c6f;fill-opacity:1;fill-rule:nonzero;stroke:none;stroke-width:0.37694502"
     d="m 1663.7554,178.7703 h -0.5229 v -3.75739 h 0.5229 z" />
  <path
     id="path1453"
     style="fill:#917c6f;fill-opacity:1;fill-rule:nonzero;stroke:none;stroke-width:0.37694502"
     d="m 1667.3725,178.7703 h -0.5228 v -3.75739 h 0.5228 z" />
  <path
     id="path1455"
     style="fill:#917c6f;fill-opacity:1;fill-rule:nonzero;stroke:none;stroke-width:0.37694502"
     d="m 1670.9889,178.7703 h -0.5228 v -3.75739 h 0.5228 z" />
  <path
     id="path1457"
     style="fill:#917c6f;fill-opacity:1;fill-rule:nonzero;stroke:none;stroke-width:0.37694502"
     d="m 1674.6057,178.7703 h -0.5228 v -3.75739 h 0.5228 z" />
  <path
     id="path1459"
     style="fill:#917c6f;fill-opacity:1;fill-rule:nonzero;stroke:none;stroke-width:0.37694502"
     d="m 1678.2236,178.7703 h -0.5228 v -3.75739 h 0.5228 z" />
  <path
     id="path1461"
     style="fill:#917c6f;fill-opacity:1;fill-rule:nonzero;stroke:none;stroke-width:0.37694502"
     d="m 1681.8385,178.7703 h -0.5228 v -3.75739 h 0.5228 z" />
  <path
     id="path1463"
     style="fill:#917c6f;fill-opacity:1;fill-rule:nonzero;stroke:none;stroke-width:0.37694502"
     d="m 1685.4561,178.7703 h -0.5228 v -3.75739 h 0.5228 z" />
  <g
     style="fill:#917c6f;fill-opacity:1"
     transform="matrix(0.37694501,0,0,-0.37694501,1660.1908,179.01301)"
     id="g1467">
    <path
       id="path1465"
       style="fill:#917c6f;fill-opacity:1;fill-rule:nonzero;stroke:none"
       d="M 0,0 -1.027,0.93 8.25,11.075 9.276,10.146 Z" />
  </g>
  <g
     style="fill:#917c6f;fill-opacity:1"
     transform="matrix(0.37694501,0,0,-0.37694501,1663.3293,179.0743)"
     id="g1471">
    <path
       id="path1469"
       style="fill:#917c6f;fill-opacity:1;fill-rule:nonzero;stroke:none"
       d="M 0,0 -9.102,10.489 -8.057,11.4 1.045,0.911 Z" />
  </g>
  <g
     style="fill:#917c6f;fill-opacity:1"
     transform="matrix(0.37694501,0,0,-0.37694501,1663.6873,179.01301)"
     id="g1475">
    <path
       id="path1473"
       style="fill:#917c6f;fill-opacity:1;fill-rule:nonzero;stroke:none"
       d="M 0,0 -1.025,0.93 8.253,11.075 9.277,10.146 Z" />
  </g>
  <g
     style="fill:#917c6f;fill-opacity:1"
     transform="matrix(0.37694501,0,0,-0.37694501,1666.8271,179.0743)"
     id="g1479">
    <path
       id="path1477"
       style="fill:#917c6f;fill-opacity:1;fill-rule:nonzero;stroke:none"
       d="M 0,0 -9.106,10.489 -8.059,11.4 1.045,0.911 Z" />
  </g>
  <g
     style="fill:#917c6f;fill-opacity:1"
     transform="matrix(0.37694501,0,0,-0.37694501,1667.3145,179.01301)"
     id="g1483">
    <path
       id="path1481"
       style="fill:#917c6f;fill-opacity:1;fill-rule:nonzero;stroke:none"
       d="M 0,0 -1.023,0.93 8.254,11.075 9.277,10.146 Z" />
  </g>
  <g
     style="fill:#917c6f;fill-opacity:1"
     transform="matrix(0.37694501,0,0,-0.37694501,1670.4537,179.0743)"
     id="g1487">
    <path
       id="path1485"
       style="fill:#917c6f;fill-opacity:1;fill-rule:nonzero;stroke:none"
       d="M 0,0 -9.102,10.489 -8.057,11.4 1.049,0.911 Z" />
  </g>
  <g
     style="fill:#917c6f;fill-opacity:1"
     transform="matrix(0.37694501,0,0,-0.37694501,1671.04,179.01301)"
     id="g1491">
    <path
       id="path1489"
       style="fill:#917c6f;fill-opacity:1;fill-rule:nonzero;stroke:none"
       d="M 0,0 -1.022,0.93 8.254,11.075 9.279,10.146 Z" />
  </g>
  <g
     style="fill:#917c6f;fill-opacity:1"
     transform="matrix(0.37694501,0,0,-0.37694501,1674.1796,179.0743)"
     id="g1495">
    <path
       id="path1493"
       style="fill:#917c6f;fill-opacity:1;fill-rule:nonzero;stroke:none"
       d="M 0,0 -9.102,10.489 -8.056,11.4 1.046,0.911 Z" />
  </g>
  <g
     style="fill:#917c6f;fill-opacity:1"
     transform="matrix(0.37694501,0,0,-0.37694501,1674.4722,179.01301)"
     id="g1499">
    <path
       id="path1497"
       style="fill:#917c6f;fill-opacity:1;fill-rule:nonzero;stroke:none"
       d="M 0,0 -1.025,0.93 8.252,11.075 9.276,10.146 Z" />
  </g>
  <g
     style="fill:#917c6f;fill-opacity:1"
     transform="matrix(0.37694501,0,0,-0.37694501,1677.6115,179.0743)"
     id="g1503">
    <path
       id="path1501"
       style="fill:#917c6f;fill-opacity:1;fill-rule:nonzero;stroke:none"
       d="M 0,0 -9.104,10.489 -8.059,11.4 1.046,0.911 Z" />
  </g>
  <g
     style="fill:#917c6f;fill-opacity:1"
     transform="matrix(0.37694501,0,0,-0.37694501,1678.0996,179.01301)"
     id="g1507">
    <path
       id="path1505"
       style="fill:#917c6f;fill-opacity:1;fill-rule:nonzero;stroke:none"
       d="M 0,0 -1.023,0.93 8.254,11.075 9.277,10.146 Z" />
  </g>
  <g
     style="fill:#917c6f;fill-opacity:1"
     transform="matrix(0.37694501,0,0,-0.37694501,1681.2392,179.0743)"
     id="g1511">
    <path
       id="path1509"
       style="fill:#917c6f;fill-opacity:1;fill-rule:nonzero;stroke:none"
       d="M 0,0 -9.104,10.489 -8.058,11.4 1.046,0.911 Z" />
  </g>
  <g
     style="fill:#917c6f;fill-opacity:1"
     transform="matrix(0.37694501,0,0,-0.37694501,1681.6294,179.01301)"
     id="g1515">
    <path
       id="path1513"
       style="fill:#917c6f;fill-opacity:1;fill-rule:nonzero;stroke:none"
       d="M 0,0 -1.023,0.93 8.252,11.075 9.277,10.146 Z" />
  </g>
  <g
     style="fill:#917c6f;fill-opacity:1"
     transform="matrix(0.37694501,0,0,-0.37694501,1684.7686,179.0743)"
     id="g1519">
    <path
       id="path1517"
       style="fill:#917c6f;fill-opacity:1;fill-rule:nonzero;stroke:none"
       d="M 0,0 -9.103,10.489 -8.057,11.4 1.047,0.911 Z" />
  </g>
  <g
     style="fill:#917c6f;fill-opacity:1"
     transform="matrix(0.37694501,0,0,-0.37694501,1685.0609,179.01301)"
     id="g1523">
    <path
       id="path1521"
       style="fill:#917c6f;fill-opacity:1;fill-rule:nonzero;stroke:none"
       d="M 0,0 -1.023,0.93 8.252,11.075 9.275,10.146 Z" />
  </g>
  <g
     style="fill:#917c6f;fill-opacity:1"
     transform="matrix(0.37694501,0,0,-0.37694501,1688.2002,179.0743)"
     id="g1527">
    <path
       id="path1525"
       style="fill:#917c6f;fill-opacity:1;fill-rule:nonzero;stroke:none"
       d="M 0,0 -9.104,10.489 -8.057,11.4 1.045,0.911 Z" />
  </g>
  <path
     id="path1529"
     style="fill:#917c6f;fill-opacity:1;fill-rule:nonzero;stroke:none;stroke-width:0.37694502"
     d="m 1702.0582,226.74861 h -55.6894 v -6.79895 h 55.6894 z" />
  <g
     style="fill:#917c6f;fill-opacity:1"
     transform="matrix(0.37694501,0,0,-0.37694501,1644.3831,231.97729)"
     id="g1533">
    <path
       id="path1531"
       style="fill:#917c6f;fill-opacity:1;fill-rule:nonzero;stroke:none"
       d="M 0,0 5.762,16.645 H 152.541 L 159.264,0 Z" />
  </g>
  <g
     style="fill:#917c6f;fill-opacity:1"
     transform="matrix(0.37694501,0,0,-0.37694501,1702.0584,225.44001)"
     id="g1537">
    <path
       id="path1535"
       style="fill:#917c6f;fill-opacity:1;fill-rule:nonzero;stroke:none"
       d="m 0,0 h -147.739 l -6.241,-18.037 H 7.284 Z m -0.934,-1.389 6.161,-15.259 h -157.261 l 5.284,15.259 z" />
  </g>
  <path
     id="path1539"
     style="fill:#917c6f;fill-opacity:1;fill-rule:nonzero;stroke:none;stroke-width:0.37694502"
     d="m 1659.6052,232.76239 h -15.5889 v -0.52357 h 15.5889 z" />
  <g
     style="fill:#917c6f;fill-opacity:1"
     transform="matrix(0.37694501,0,0,-0.37694501,1644.0163,232.23901)"
     id="g1543">
    <path
       id="path1541"
       style="fill:#917c6f;fill-opacity:1;fill-rule:nonzero;stroke:none"
       d="M 0,0 H 0.619 L 0.158,0.459 Z m 150.537,4.876 -4.479,4.478 4.168,4.166 4.477,-4.478 z m -10.625,0.3 -4.486,4.485 4.178,4.177 4.486,-4.484 z m -5.158,-5.157 -4.484,4.484 4.175,4.174 4.485,-4.482 z m -9.946,9.949 4.175,4.171 4.477,-4.478 -4.173,-4.178 z m -0.672,-9.628 -4.479,4.474 4.167,4.166 4.48,-4.477 z m -9.946,9.939 4.166,4.167 4.486,-4.478 -4.169,-4.17 z m -0.676,-9.635 -4.484,4.477 4.176,4.182 4.485,-4.489 z m -9.99,9.99 4.176,4.17 4.523,-4.525 -4.174,-4.171 z m -0.634,-9.683 -4.526,4.525 4.174,4.17 4.527,-4.525 z m -9.993,9.99 4.174,4.17 4.486,-4.477 -4.176,-4.174 z m -0.674,-9.639 -4.482,4.481 4.172,4.178 4.484,-4.485 z m -9.945,9.943 4.174,4.178 4.478,-4.482 -4.172,-4.173 z m -0.677,-9.636 -4.479,4.486 4.174,4.17 4.478,-4.482 z m -9.95,9.951 4.174,4.173 4.486,-4.488 -4.172,-4.171 z m -0.667,-9.639 -4.488,4.48 4.175,4.171 4.485,-4.477 z m -9.95,9.942 4.172,4.174 4.48,-4.477 -4.174,-4.174 z m -0.676,-9.635 -4.48,4.485 4.172,4.17 4.482,-4.482 z m -9.947,9.943 4.176,4.178 4.481,-4.486 -4.175,-4.17 z m -0.714,-9.679 -4.483,4.485 4.213,4.213 4.484,-4.477 z m -9.952,9.95 4.217,4.217 4.481,-4.488 -4.213,-4.214 z m -0.673,-9.639 -4.485,4.481 4.178,4.171 4.481,-4.478 z m -9.947,9.943 4.176,4.174 4.478,-4.478 -4.172,-4.177 z m -0.676,-9.64 -4.483,4.482 4.174,4.174 4.48,-4.478 z m -9.991,9.987 4.175,4.178 4.525,-4.525 -4.174,-4.171 z m -0.626,-9.671 -4.525,4.52 4.169,4.171 4.523,-4.525 z m -9.99,9.989 4.166,4.167 4.482,-4.485 -4.167,-4.163 z m 151.739,-9.241 -1.335,3.299 -1.575,1.573 0.668,0.669 -0.563,1.407 -1.089,-1.092 -4.477,4.485 2.987,2.984 -0.217,0.542 h -1.207 l -2.547,-2.55 -2.544,2.55 h -1.97 l 3.53,-3.526 -4.167,-4.17 -4.485,4.481 3.214,3.215 h -1.973 l -2.227,-2.227 -2.225,2.227 h -1.966 l 3.21,-3.215 -4.178,-4.181 -4.477,4.485 2.909,2.911 h -1.964 l -1.93,-1.931 -1.929,1.931 h -1.966 l 2.91,-2.911 -4.174,-4.182 -4.483,4.49 2.604,2.603 h -1.973 l -1.616,-1.616 -1.616,1.616 h -1.968 l 2.601,-2.603 -4.167,-4.167 -4.524,4.528 2.244,2.242 h -1.966 l -1.26,-1.262 -1.264,1.262 h -1.968 l 2.246,-2.242 -4.176,-4.181 -4.482,4.485 1.936,1.938 h -1.966 l -0.955,-0.954 -0.953,0.954 h -1.966 l 1.935,-1.938 -4.174,-4.178 -4.475,4.481 1.631,1.635 h -1.966 l -0.651,-0.65 -0.647,0.65 h -1.966 l 1.631,-1.635 -4.174,-4.17 -4.484,4.478 1.32,1.327 h -1.969 l -0.338,-0.34 -0.334,0.34 H 73.52 l 1.324,-1.327 -4.173,-4.17 -4.481,4.481 1.013,1.016 h -1.966 l -0.031,-0.032 -0.032,0.032 h -1.966 l 1.015,-1.016 -4.173,-4.17 -4.483,4.481 0.705,0.705 h -3.376 l 0.707,-0.705 -4.176,-4.174 -4.481,4.486 0.394,0.393 h -2.756 l 0.395,-0.393 -4.214,-4.222 -4.482,4.481 0.131,0.134 h -2.226 l 0.127,-0.134 -4.175,-4.174 -4.306,4.308 h -2.401 l -3.957,-3.953 -3.955,3.953 H 10.493 L 6.853,14.396 5.464,15.784 4.957,14.33 5.872,13.411 3.991,11.534 2.95,8.528 6.853,12.435 11.341,7.942 7.165,3.769 2.811,8.127 2.304,6.666 6.182,2.785 3.393,0 H 5.366 L 7.165,1.801 8.965,0 h 1.969 L 8.149,2.785 12.323,6.959 16.848,2.438 14.414,0 h 1.965 L 17.832,1.454 19.284,0 h 1.967 L 18.815,2.438 22.984,6.601 27.465,2.127 25.339,0 H 27.31 L 28.449,1.14 29.585,0 h 1.971 L 29.429,2.127 33.607,6.297 38.086,1.815 36.272,0 h 1.964 L 39.072,0.839 39.906,0 H 41.87 L 40.054,1.815 44.23,5.997 48.711,1.508 47.205,0 H 49.17 L 49.697,0.528 50.22,0 h 1.966 L 50.679,1.508 54.893,5.722 59.374,1.24 58.128,0 h 1.969 L 60.358,0.261 60.616,0 h 1.966 L 61.34,1.24 65.512,5.422 69.999,0.933 69.067,0 h 3.83 L 71.964,0.933 76.139,5.107 80.618,0.629 79.989,0 h 3.224 L 82.585,0.629 86.758,4.804 91.243,0.314 90.927,0 h 2.594 L 93.208,0.314 97.381,4.488 101.873,0 h 2.032 L 108.049,4.142 112.185,0 h 2.66 L 118.673,3.834 122.502,0 h 3.269 l 3.516,3.52 3.518,-3.52 h 3.897 l 3.21,3.208 L 143.124,0 h 1.964 l -4.191,4.195 4.178,4.178 4.48,-4.481 L 145.663,0 h 1.964 l 2.91,2.911 L 153.443,0 h 1.971 l -3.895,3.892 4.168,4.167 z M 159.919,3.327 156.596,0 h 1.968 l 1.925,1.924 z" />
  </g>
  <g
     style="fill:#917c6f;fill-opacity:1"
     transform="matrix(0.37694501,0,0,-0.37694501,1651.7289,224.39421)"
     id="g1547">
    <path
       id="path1545"
       style="fill:#917c6f;fill-opacity:1;fill-rule:nonzero;stroke:none"
       d="m 0,0 c -0.383,0 -0.694,0.304 -0.694,0.691 v 9.841 c 0,0.384 0.311,0.695 0.694,0.695 0.382,0 0.695,-0.311 0.695,-0.695 V 0.691 C 0.695,0.304 0.382,0 0,0" />
  </g>
  <g
     style="fill:#917c6f;fill-opacity:1"
     transform="matrix(0.37694501,0,0,-0.37694501,1657.3823,224.39421)"
     id="g1551">
    <path
       id="path1549"
       style="fill:#917c6f;fill-opacity:1;fill-rule:nonzero;stroke:none"
       d="m 0,0 c -0.382,0 -0.693,0.304 -0.693,0.691 v 9.841 c 0,0.384 0.311,0.695 0.693,0.695 0.381,0 0.694,-0.311 0.694,-0.695 V 0.691 C 0.694,0.304 0.381,0 0,0" />
  </g>
  <g
     style="fill:#917c6f;fill-opacity:1"
     transform="matrix(0.37694501,0,0,-0.37694501,1663.0369,224.39421)"
     id="g1555">
    <path
       id="path1553"
       style="fill:#917c6f;fill-opacity:1;fill-rule:nonzero;stroke:none"
       d="m 0,0 c -0.382,0 -0.694,0.304 -0.694,0.691 v 9.841 c 0,0.384 0.312,0.695 0.694,0.695 0.382,0 0.692,-0.311 0.692,-0.695 V 0.691 C 0.692,0.304 0.382,0 0,0" />
  </g>
  <g
     style="fill:#917c6f;fill-opacity:1"
     transform="matrix(0.37694501,0,0,-0.37694501,1668.6901,224.39421)"
     id="g1559">
    <path
       id="path1557"
       style="fill:#917c6f;fill-opacity:1;fill-rule:nonzero;stroke:none"
       d="m 0,0 c -0.381,0 -0.694,0.304 -0.694,0.691 v 9.841 c 0,0.384 0.313,0.695 0.694,0.695 0.383,0 0.695,-0.311 0.695,-0.695 V 0.691 C 0.695,0.304 0.383,0 0,0" />
  </g>
  <g
     style="fill:#917c6f;fill-opacity:1"
     transform="matrix(0.37694501,0,0,-0.37694501,1674.3441,224.39421)"
     id="g1563">
    <path
       id="path1561"
       style="fill:#917c6f;fill-opacity:1;fill-rule:nonzero;stroke:none"
       d="m 0,0 c -0.382,0 -0.692,0.304 -0.692,0.691 v 9.841 c 0,0.384 0.31,0.695 0.692,0.695 0.382,0 0.694,-0.311 0.694,-0.695 V 0.691 C 0.694,0.304 0.382,0 0,0" />
  </g>
  <g
     style="fill:#917c6f;fill-opacity:1"
     transform="matrix(0.37694501,0,0,-0.37694501,1679.9987,224.39421)"
     id="g1567">
    <path
       id="path1565"
       style="fill:#917c6f;fill-opacity:1;fill-rule:nonzero;stroke:none"
       d="m 0,0 c -0.381,0 -0.694,0.304 -0.694,0.691 v 9.841 c 0,0.384 0.313,0.695 0.694,0.695 0.382,0 0.693,-0.311 0.693,-0.695 V 0.691 C 0.693,0.304 0.382,0 0,0" />
  </g>
  <g
     style="fill:#917c6f;fill-opacity:1"
     transform="matrix(0.37694501,0,0,-0.37694501,1685.6521,224.39421)"
     id="g1571">
    <path
       id="path1569"
       style="fill:#917c6f;fill-opacity:1;fill-rule:nonzero;stroke:none"
       d="m 0,0 c -0.382,0 -0.695,0.304 -0.695,0.691 v 9.841 c 0,0.384 0.313,0.695 0.695,0.695 0.381,0 0.694,-0.311 0.694,-0.695 V 0.691 C 0.694,0.304 0.381,0 0,0" />
  </g>
  <g
     style="fill:#917c6f;fill-opacity:1"
     transform="matrix(0.37694501,0,0,-0.37694501,1691.3059,224.39421)"
     id="g1575">
    <path
       id="path1573"
       style="fill:#917c6f;fill-opacity:1;fill-rule:nonzero;stroke:none"
       d="m 0,0 c -0.382,0 -0.692,0.304 -0.692,0.691 v 9.841 c 0,0.384 0.31,0.695 0.692,0.695 0.382,0 0.694,-0.311 0.694,-0.695 V 0.691 C 0.694,0.304 0.382,0 0,0" />
  </g>
  <g
     style="fill:#917c6f;fill-opacity:1"
     transform="matrix(0.37694501,0,0,-0.37694501,1696.9601,224.39421)"
     id="g1579">
    <path
       id="path1577"
       style="fill:#917c6f;fill-opacity:1;fill-rule:nonzero;stroke:none"
       d="m 0,0 c -0.382,0 -0.695,0.304 -0.695,0.691 v 9.841 c 0,0.384 0.313,0.695 0.695,0.695 0.383,0 0.692,-0.311 0.692,-0.695 V 0.691 C 0.692,0.304 0.383,0 0,0" />
  </g>
  <path
     id="path1581"
     style="fill:#917c6f;fill-opacity:1;fill-rule:nonzero;stroke:none;stroke-width:0.37694502"
     d="m 1646.6307,216.98725 h 55.1667 v 3.51463 h -55.1667 z" />
  <path
     id="path1583"
     style="fill:#917c6f;fill-opacity:1;fill-rule:nonzero;stroke:none;stroke-width:0.37694502"
     d="m 1702.0582,216.72376 h -55.6894 v 4.03821 h 55.6894 z m -0.5228,3.51652 h -54.6434 v -2.99257 h 54.6434 z" />
  <path
     id="path1585"
     style="fill:#917c6f;fill-opacity:1;fill-rule:nonzero;stroke:none;stroke-width:0.37694502"
     d="m 1651.9909,220.60403 h -0.5236 v -3.70989 h 0.5236 z" />
  <path
     id="path1587"
     style="fill:#917c6f;fill-opacity:1;fill-rule:nonzero;stroke:none;stroke-width:0.37694502"
     d="m 1657.6439,220.60403 h -0.5228 v -3.70989 h 0.5228 z" />
  <path
     id="path1589"
     style="fill:#917c6f;fill-opacity:1;fill-rule:nonzero;stroke:none;stroke-width:0.37694502"
     d="m 1663.2977,220.60403 h -0.5228 v -3.70989 h 0.5228 z" />
  <path
     id="path1591"
     style="fill:#917c6f;fill-opacity:1;fill-rule:nonzero;stroke:none;stroke-width:0.37694502"
     d="m 1668.9519,220.60403 h -0.5236 v -3.70989 h 0.5236 z" />
  <path
     id="path1593"
     style="fill:#917c6f;fill-opacity:1;fill-rule:nonzero;stroke:none;stroke-width:0.37694502"
     d="m 1674.6057,220.60403 h -0.5228 v -3.70989 h 0.5228 z" />
  <path
     id="path1595"
     style="fill:#917c6f;fill-opacity:1;fill-rule:nonzero;stroke:none;stroke-width:0.37694502"
     d="m 1680.2599,220.60403 h -0.5232 v -3.70989 h 0.5232 z" />
  <path
     id="path1597"
     style="fill:#917c6f;fill-opacity:1;fill-rule:nonzero;stroke:none;stroke-width:0.37694502"
     d="m 1685.9137,220.60403 h -0.524 v -3.70989 h 0.524 z" />
  <path
     id="path1599"
     style="fill:#917c6f;fill-opacity:1;fill-rule:nonzero;stroke:none;stroke-width:0.37694502"
     d="m 1691.5675,220.60403 h -0.5228 v -3.70989 h 0.5228 z" />
  <path
     id="path1601"
     style="fill:#917c6f;fill-opacity:1;fill-rule:nonzero;stroke:none;stroke-width:0.37694502"
     d="m 1697.2209,220.60403 h -0.5232 v -3.70989 h 0.5232 z" />
  <g
     style="fill:#917c6f;fill-opacity:1"
     transform="matrix(0.37694501,0,0,-0.37694501,1659.3455,233.61614)"
     id="g1605">
    <path
       id="path1603"
       style="fill:#917c6f;fill-opacity:1;fill-rule:nonzero;stroke:none"
       d="m 0,0 -1.338,0.376 c 1.593,5.672 3.926,19.9 3.946,20.053 L 3.98,20.197 C 3.881,19.611 1.611,5.755 0,0" />
  </g>
  <g
     style="fill:#917c6f;fill-opacity:1"
     transform="matrix(0.37694501,0,0,-0.37694501,1672.2514,170.70865)"
     id="g1609">
    <path
       id="path1607"
       style="fill:#917c6f;fill-opacity:1;fill-rule:nonzero;stroke:none"
       d="M 0,0 -1.035,0.915 11.113,14.587 0.77,32.053 9.074,47.772 2.732,62.503 8.078,78.964 3.969,93.374 7.057,108.095 4.526,121.01 5.885,121.282 8.473,108.08 8.443,107.942 5.401,93.428 9.528,78.942 4.212,62.568 10.613,47.703 10.458,47.41 2.356,32.093 12.825,14.42 Z" />
  </g>
  <g
     style="fill:#917c6f;fill-opacity:1"
     transform="matrix(0.37694501,0,0,-0.37694501,1676.6168,171.14632)"
     id="g1613">
    <path
       id="path1611"
       style="fill:#917c6f;fill-opacity:1;fill-rule:nonzero;stroke:none"
       d="m 0,0 -11.894,16.334 9.922,15.668 -8.305,16.266 7.483,14.102 -6.049,17.752 4.693,13.093 -3.802,15.205 2.63,13.155 1.362,-0.271 -2.572,-12.855 3.828,-15.31 L -7.375,80.11 -1.288,62.25 -8.713,48.257 -0.376,31.926 -10.22,16.385 1.123,0.81 Z" />
  </g>
  <path
     id="path1615"
     style="fill:#917c6f;fill-opacity:1;fill-rule:nonzero;stroke:none;stroke-width:0.37694502"
     d="m 1679.6033,89.225504 h -10.1689 v -4.270033 h 10.1689 z" />
  <path
     id="path1617"
     style="fill:#917c6f;fill-opacity:1;fill-rule:nonzero;stroke:none;stroke-width:0.37694502"
     d="m 1679.6033,82.427678 h -10.1689 v -4.268902 h 10.1689 z" />
  <path
     id="path1619"
     style="fill:#917c6f;fill-opacity:1;fill-rule:nonzero;stroke:none;stroke-width:0.37694502"
     d="m 1680.9968,87.21978 h -12.9563 v -8.013851 h 12.9563 z" />
  <g
     style="fill:#917c6f;fill-opacity:1"
     transform="matrix(0.37694501,0,0,-0.37694501,1671.7502,78.824234)"
     id="g1623">
    <path
       id="path1621"
       style="fill:#917c6f;fill-opacity:1;fill-rule:nonzero;stroke:none"
       d="M 0,0 6.998,16.099 13.998,0 Z" />
  </g>
  <g
     style="fill:#917c6f;fill-opacity:1"
     transform="matrix(0.37694501,0,0,-0.37694501,1675.4046,76.537912)"
     id="g1627">
    <path
       id="path1625"
       style="fill:#917c6f;fill-opacity:1;fill-rule:nonzero;stroke:none"
       d="m 0,0 h -5.391 l 2.694,28.418 z" />
  </g>
  <path
     id="path1629"
     style="fill:#917c6f;fill-opacity:1;fill-rule:nonzero;stroke:none;stroke-width:0.37694502"
     d="m 1675.0769,59.701663 h -1.3785 v -0.79083 h 1.3785 z" />
  <path
     id="path1631"
     style="fill:#917c6f;fill-opacity:1;fill-rule:nonzero;stroke:none;stroke-width:0.37694502"
     d="m 1674.689,70.094414 h -0.6027 V 59.110991 h 0.6027 z" />
  <path
     id="path1633"
     style="fill:#917c6f;fill-opacity:1;fill-rule:nonzero;stroke:none;stroke-width:0.37694502"
     d="m 1670.7835,85.695791 h -0.6879 v -5.295323 h 0.6879 z" />
  <path
     id="path1635"
     style="fill:#917c6f;fill-opacity:1;fill-rule:nonzero;stroke:none;stroke-width:0.37694502"
     d="m 1672.7851,85.695791 h -0.6872 v -5.295323 h 0.6872 z" />
  <path
     id="path1637"
     style="fill:#917c6f;fill-opacity:1;fill-rule:nonzero;stroke:none;stroke-width:0.37694502"
     d="m 1674.7866,85.695791 h -0.6879 v -5.295323 h 0.6879 z" />
  <path
     id="path1639"
     style="fill:#917c6f;fill-opacity:1;fill-rule:nonzero;stroke:none;stroke-width:0.37694502"
     d="m 1676.7871,85.695791 h -0.6876 v -5.295323 h 0.6876 z" />
  <path
     id="path1641"
     style="fill:#917c6f;fill-opacity:1;fill-rule:nonzero;stroke:none;stroke-width:0.37694502"
     d="m 1678.7887,85.695791 h -0.6883 v -5.295323 h 0.6883 z" />
  <path
     style="display:inline;opacity:1;fill:#fffcd5;fill-opacity:0.25;stroke:none;stroke-width:1.00785"
     d="M 1114.7812,41.544922 C 969.54768,41.63303 850.71537,153.20028 846.58203,298.375 H 1382.8691 C 1378.737,153.24343 1259.9715,41.693181 1114.7812,41.544922 Z"
     id="circle1649-6" />
  <path
     style="display:inline;opacity:1;fill:#fffcd5;fill-opacity:1;stroke:none;stroke-width:0.883656"
     d="M 1117.1855,74.597656 C 990.69052,74.676606 886.87506,172.71582 882.11133,299.12109 H 1352.1309 C 1347.3691,172.76563 1243.6306,74.745749 1117.1855,74.597656 Z"
     id="circle1649" />
  <path
     id="path1651"
     d="M -0.66032985,268.67145 126.66133,237.4603 205.43232,208.72623 c 0,0 17.33954,-9.9083 46.56902,-5.44956 29.22949,4.45873 69.85352,6.93581 69.85352,6.93581 0,0 17.33953,3.46791 39.13779,-4.45873 21.79826,-7.92665 162.49611,-43.59653 162.49611,-43.59653 0,0 46.56904,-7.92664 74.80768,-2.97249 28.23867,4.95415 38.14695,-0.99083 38.14695,-0.99083 0,0 33.19283,-11.39455 58.95439,6.4404 25.7616,17.83494 130.78958,10.89913 130.78958,10.89913 0,0 45.57818,-7.43123 94.62426,9.9083 49.04612,17.33952 106.01888,16.84411 106.01888,16.84411 0,0 50.0369,6.44039 92.6426,-7.92664 42.6057,-14.36704 82.7343,-10.40372 82.7343,-10.40372 0,0 54.4956,1.48624 129.7987,40.12862 l 243.7443,3.4679 c 0,0 54.9911,-1.98165 65.3947,24.27534 10.4038,26.257 158.5329,-12.38537 162.0008,-11.88996 3.4679,0.49542 15.8533,-6.44039 31.7065,11.39455 15.8533,17.83494 54.9911,41.1194 54.9911,41.1194 l 30.7157,-1.98163 -0.063,11.62799 -1921.08786208,0.0886 z"
     style="fill:#244256;fill-opacity:1;stroke:none;stroke-width:1.00074px;stroke-linecap:butt;stroke-linejoin:miter;stroke-opacity:1" />
</svg>
